<?xml version="1.0" encoding="utf-8"?>
<!-- Generator: Adobe Illustrator 25.0.0, SVG Export Plug-In . SVG Version: 6.00 Build 0)  -->
<svg version="1.1" id="Layer_1" xmlns="http://www.w3.org/2000/svg" xmlns:xlink="http://www.w3.org/1999/xlink" x="0px" y="0px"
	 viewBox="0 0 512 512" style="enable-background:new 0 0 512 512;" xml:space="preserve">
<style type="text/css">
	.st0{fill:#FFFFFF;}
</style>
<g>
	<g>
		<path d="M334.52,345.26c-31.16-19.33-48.63-50.33-52.61-82.81c-2.94,0.18-5.88,0.22-8.82,0.22c-1.76,0-3.52-0.02-5.27-0.02
			c-15.43,0.02-42.99,0.02-70.45,0.03c2.3,22.1-1.2,42.12-10.55,58.66c-8.16,14.43-24.25,32.1-55.54,40.16
			c6.65,51.83,50.69,91.45,103.23,92.29c0.55,0.01,1.07,0.02,1.62,0.02c53.31,0,99.46-42.12,104.36-96.19
			C340.82,353.63,337.87,347.36,334.52,345.26z"/>
	</g>
	<g>
		<path class="st0" d="M118.5,301.29v0.17l0.29-0.26C118.7,301.22,118.6,301.26,118.5,301.29z"/>
	</g>
</g>
<g>
	<g>
		<path d="M334.35,150.81c-30.88,19.14-48.41,50.1-52.45,82.6h-0.14c-14.63-0.12-46.47-0.13-74.43-0.13h-16.1
			c-2.15-7.03-4.83-14.19-8.01-21.44c-18.74-42.76-38.86-73.97-48.97-88.5c0.04-0.31,0.1-0.61,0.15-0.91
			c8.07-46.67,53.91-80.45,99.87-80.45c2.52,0,5.04,0.11,7.56,0.32c52.84,4.35,94.41,44.59,98.67,96.2
			C340.82,142.51,337.75,148.72,334.35,150.81z"/>
	</g>
</g>
<g>
	<path d="M444.51,178.5c-31.45,31.39-62.13,62.01-92.8,92.65c-14.05,14.04-16.28,22.05-8.35,29.86c7.78,7.66,15.68,5.34,29.85-8.82
		c27.34-27.32,54.66-54.67,82.02-81.97c3.32-3.31,6.81-6.44,10.3-9.71c24.98,33.76,19.36,82.61-12.13,110.52
		c-33.98,30.12-82.67,29.71-115.62-0.99c-32.49-30.27-35.98-80.5-8-115.3C357.78,159.92,405.21,152.54,444.51,178.5z"/>
</g>
<g>
	<g>
		<g>
			<path d="M118.5,301.29v0.17l0.29-0.26C118.7,301.22,118.6,301.26,118.5,301.29z"/>
			<path d="M173.66,262.68c-0.24-1.89-0.53-3.8-0.87-5.73c-0.33-1.89-0.71-3.8-1.14-5.73c-0.47-2.15-1.02-4.32-1.62-6.5
				c-0.51-1.9-1.07-3.81-1.68-5.73c-0.6-1.91-1.24-3.82-1.93-5.73c-1.42-3.98-3-7.97-4.76-11.98
				c-10.73-24.48-21.96-45.02-31.23-60.45c-1.84-3.05-3.6-5.89-5.25-8.53c-1.83-2.89-3.54-5.54-5.11-7.92
				c-4.44-6.74-7.78-11.36-9.44-13.62c2.7,5.15,5.43,24.64-48.82,81.23c-62.29,64.97-21.01,129.93,39.3,129.93
				c3.61,0,7.3-0.24,11.04-0.72c2.23-0.29,4.39-0.62,6.48-1.02c1.96-0.36,3.86-0.77,5.71-1.23c1.96-0.47,3.86-1,5.7-1.58
				C165.76,326.16,178.02,297.13,173.66,262.68z M153.59,276.14c-0.07,0.96-0.81,9.65-6.5,18.94c-3.28,5.37-8.64,11.55-17.19,15.96
				c-1.78,0.92-3.69,1.77-5.74,2.52c-1.79,0.65-3.7,1.22-5.73,1.71c-2.69,0.65-5.59,1.13-8.71,1.43c-0.21,0.03-0.43,0.04-0.64,0.04
				c-3.42,0-6.35-2.61-6.68-6.1c-0.35-3.69,2.36-6.97,6.06-7.33c3.64-0.34,6.99-1.02,10.05-2.03c0.1-0.03,0.19-0.06,0.29-0.1
				c1.94-0.65,3.76-1.43,5.46-2.36c2.12-1.14,4.04-2.49,5.77-4.04c2.16-1.93,4.03-4.18,5.58-6.73c0.85-1.39,1.55-2.77,2.11-4.07
				c2.11-4.86,2.44-8.72,2.45-8.78c0.26-3.71,3.47-6.52,7.17-6.25C151.05,269.22,153.84,272.44,153.59,276.14z"/>
		</g>
	</g>
	<g>
		<path class="st0" d="M118.79,301.19l-0.29,0.26v-0.17C118.6,301.26,118.7,301.22,118.79,301.19z"/>
	</g>
</g>
</svg>
