<svg width="32" height="32" viewBox="0 0 32 32" fill="none" xmlns="http://www.w3.org/2000/svg">
<path d="M24 0H8C3.58172 0 0 3.58172 0 8V24C0 28.4183 3.58172 32 8 32H24C28.4183 32 32 28.4183 32 24V8C32 3.58172 28.4183 0 24 0Z" fill="#EF4444"/>
<path d="M28 16C28 9.37258 22.6274 4 16 4C9.37258 4 4 9.37258 4 16C4 22.6274 9.37258 28 16 28C22.6274 28 28 22.6274 28 16Z" fill="white"/>
<path d="M16.0078 15.6738L16.0078 10.9999" stroke="#EF4444" stroke-width="2.5" stroke-linecap="round"/>
<path d="M16.0041 18.9457C15.2297 18.9457 14.6019 19.5734 14.6019 20.3478C14.6019 21.1222 15.2297 21.75 16.0041 21.75C16.7785 21.75 17.4063 21.1222 17.4063 20.3478C17.4063 19.5734 16.7785 18.9457 16.0041 18.9457Z" fill="#EF4444"/>
</svg>
