<svg xmlns="http://www.w3.org/2000/svg" width="50" height="50" viewBox="0 0 50 50">
  <path id="Path_26347" data-name="Path 26347" d="M25,0A25,25,0,1,0,50,25,25.029,25.029,0,0,0,25,0ZM41.922,38.844a9.387,9.387,0,0,0-2.581-1l-6.853-1.375a1.551,1.551,0,0,1-1.237-1.531V33.156c6.828-.653,7.813-2.047,7.813-3.469,0-4.2-2.794-13.962-3.253-15.55-.059-2.453-.506-3.831-1.628-5.041a4.832,4.832,0,0,0-2.9-1.219,5.05,5.05,0,0,1-1.066-.253A11.064,11.064,0,0,0,24.934,6.25c-4.116.169-9.175,2.787-10.906,7.575-.125.447-3.091,11.016-3.091,15.862,0,2.022,2.284,3.087,7.813,3.575v1.675a1.553,1.553,0,0,1-1.244,1.531l-6.859,1.375a9.378,9.378,0,0,0-2.569,1,21.874,21.874,0,1,1,33.844,0Z" fill="#cbd5e1"/>
</svg>
