<svg id="Capa_1" enable-background="new 0 0 512 512" height="512" viewBox="0 0 512 512" width="512" xmlns="http://www.w3.org/2000/svg" xmlns:xlink="http://www.w3.org/1999/xlink"><linearGradient id="lg1"><stop offset="0" stop-color="#ffa538"/><stop offset="1" stop-color="#f7e041"/></linearGradient><linearGradient id="SVGID_1_" gradientUnits="userSpaceOnUse" x1="81.122" x2="109.667" xlink:href="#lg1" y1="321.783" y2="321.783"/><linearGradient id="SVGID_2_" gradientUnits="userSpaceOnUse" x1="75.959" x2="248.051" y1="153.553" y2="252.91"><stop offset="0" stop-color="#ffa538"/><stop offset="1" stop-color="#fcf3b3"/></linearGradient><linearGradient id="lg2"><stop offset=".0319" stop-color="#8b451c"/><stop offset="1" stop-color="#8b451c" stop-opacity="0"/></linearGradient><linearGradient id="SVGID_3_" gradientUnits="userSpaceOnUse" x1="93.449" x2="7.725" xlink:href="#lg2" y1="251.355" y2="251.355"/><linearGradient id="SVGID_4_" gradientUnits="userSpaceOnUse" x1="264.462" x2="154.728" xlink:href="#lg2" y1="158.479" y2="158.479"/><linearGradient id="SVGID_5_" gradientUnits="userSpaceOnUse" x1="168.004" x2="168.004" y1="230.869" y2="-34.75"><stop offset="0" stop-color="#dfdaef"/><stop offset="1" stop-color="#fff"/></linearGradient><linearGradient id="SVGID_6_" gradientUnits="userSpaceOnUse" x1="225.024" x2="225.024" y1="-5.183" y2="126.662"><stop offset=".0319" stop-color="#7662bd"/><stop offset="1" stop-color="#7662bd" stop-opacity="0"/></linearGradient><linearGradient id="SVGID_7_" gradientUnits="userSpaceOnUse" x1="219.287" x2="219.287" y1="264.222" y2="377.088"><stop offset="0" stop-color="#322a50"/><stop offset="1" stop-color="#43386b"/></linearGradient><linearGradient id="SVGID_8_" gradientUnits="userSpaceOnUse" x1="273.889" x2="291.735" xlink:href="#lg1" y1="390.791" y2="390.791"/><linearGradient id="SVGID_9_" gradientUnits="userSpaceOnUse" x1="294.104" x2="278.784" xlink:href="#lg2" y1="366.893" y2="393.428"/><linearGradient id="SVGID_10_" gradientUnits="userSpaceOnUse" x1="452.932" x2="388.589" y1="480.44" y2="368.994"><stop offset="0" stop-color="#e37a34"/><stop offset=".1732" stop-color="#ffa538"/><stop offset=".6592" stop-color="#f7e041"/><stop offset="1" stop-color="#fcf3b3"/></linearGradient><linearGradient id="SVGID_11_" gradientUnits="userSpaceOnUse" x1="471.972" x2="459.211" xlink:href="#lg2" y1="497.202" y2="475.101"/><linearGradient id="SVGID_12_" gradientUnits="userSpaceOnUse" x1="391.26" x2="429.434" y1="418.526" y2="484.644"><stop offset="0" stop-color="#e37a34"/><stop offset="1" stop-color="#ffa538"/></linearGradient><linearGradient id="SVGID_13_" gradientUnits="userSpaceOnUse" x1="376.93" x2="399.597" xlink:href="#lg2" y1="393.705" y2="432.965"/><linearGradient id="SVGID_14_" gradientUnits="userSpaceOnUse" x1="236.385" x2="253.104" xlink:href="#lg1" y1="368.777" y2="368.777"/><linearGradient id="SVGID_15_" gradientUnits="userSpaceOnUse" x1="255.916" x2="240.596" xlink:href="#lg2" y1="344.879" y2="371.414"/><linearGradient id="SVGID_16_" gradientUnits="userSpaceOnUse" x1="293.76" x2="314.013" y1="370.113" y2="335.034"><stop offset="0" stop-color="#ffa538"/><stop offset=".3408" stop-color="#f7e041"/><stop offset=".654" stop-color="#fcf3b3"/><stop offset="1" stop-color="#f7e041"/></linearGradient><linearGradient id="SVGID_17_" gradientUnits="userSpaceOnUse" x1="402.13" x2="402.13" xlink:href="#lg1" y1="572.114" y2="369.614"/><g><path d="m309.713 164.046-283.418 85.144v190.703l.019-.006c.015 3.923 2.9 8.031 8.408 11.211l20.401 11.778 20.401 11.778c9.086 5.246 22.549 6.402 31.728 2.724l22.61-9.06c62.762-25.148 116.892-56.4 160.451-92.636l15.692-13.054c2.497-2.077 3.689-4.534 3.691-7.07l.018-.005v-191.507z" fill="url(#SVGID_1_)"/><path d="m206.147 136.081 22.611-9.06c9.179-3.678 22.642-2.522 31.727 2.724l20.401 11.778 20.401 11.778c9.086 5.246 11.088 13.019 4.718 18.318l-15.692 13.054c-43.558 36.236-97.688 67.488-160.451 92.636l-22.611 9.06c-9.178 3.678-22.642 2.522-31.727-2.724l-20.401-11.778-20.401-11.778c-9.086-5.246-11.088-13.019-4.718-18.318l15.692-13.054c43.559-36.236 97.689-67.488 160.451-92.636z" fill="url(#SVGID_2_)"/><path d="m30.004 241.771c-6.37 5.299-4.368 13.072 4.718 18.318l9.539 5.507h45.391v-28.483h-54.049z" fill="url(#SVGID_3_)"/><path d="m128.499 172.72h120.969v-28.483h-62.825c-20.389 8.842-39.807 18.342-58.144 28.483z" fill="url(#SVGID_4_)"/><path d="m270.083 75.472c0-27.242-14.084-51.637-37.677-65.257-23.591-13.621-51.759-13.62-75.351 0-56.211 32.453-91.13 92.934-91.13 157.841v83.352l.041.003c.026 3.442 2.533 7.065 7.441 9.899 9.02 5.208 22.665 5.773 30.477 1.263 3.576-2.065 5.288-4.837 5.252-7.734l.042.003v-86.787c0-49.503 26.633-95.632 69.503-120.384 10.052-5.802 22.049-5.803 32.101 0 10.049 5.802 16.049 16.195 16.049 27.8v83.19l.048.004c.098 3.396 2.599 6.954 7.435 9.745 9.02 5.208 22.665 5.773 30.477 1.263 3.387-1.955 5.115-4.544 5.258-7.273l.035.003v-86.931z" fill="url(#SVGID_5_)"/><path d="m244.004 158.768v-75.643c0-32.475-35.156-52.772-63.28-36.535v.001c9.335-4.557 20.053-4.349 29.258.634 10.579 5.727 16.849 17.12 16.849 29.15v82.287l.048.004c.098 3.396 2.599 6.954 7.435 9.745 9.02 5.208 22.665 5.773 30.477 1.263 2.226-1.285 3.722-2.847 4.535-4.54-16.72 2.166-25.322-6.366-25.322-6.366z" fill="url(#SVGID_6_)"/><path d="m243.616 304.059c0-17.915-10.892-26.149-24.328-18.392s-24.328 28.569-24.328 46.484c0 12.366 5.191 20.116 12.824 21.182v27.1c0 8.471 5.151 12.365 11.504 8.697 6.354-3.668 11.504-13.509 11.504-21.98v-27.1c7.633-9.881 12.824-23.625 12.824-35.991z" fill="url(#SVGID_7_)"/><g><g><path d="m266.5 363.845v43.295l.03.002c.019 2.567 1.889 5.269 5.549 7.382 6.727 3.883 16.902 4.305 22.727.942 2.667-1.54 3.944-3.607 3.917-5.768l.031.003v-45.856z" fill="url(#SVGID_8_)"/><path d="m266.5 407.142 32.254 2.557v-45.854h-32.254z" fill="url(#SVGID_9_)"/></g><path d="m485.705 448.148c0-38.229-23.243-82.639-51.915-99.193-12.99-7.5-24.855-7.975-33.96-2.718-.001-.006-.004-.023-.004-.023l-31.63 18.358s-17.019 81.97 11.999 106.79c29.017 24.82 55.274 37.499 55.274 37.499l32.935-19.112s-.038.017-.093.04c10.669-6.518 17.394-21.087 17.394-41.641zm-68.854-25.402c.566-4.386.825-9.398.825-14.312 0-3.474-.171-7.219-.49-10.936l26.228 65.226c-1.926-.275-8.469-2.842-9.687-3.549-10.515-6.1-18.538-23.546-16.876-36.429z" fill="url(#SVGID_10_)"/><path d="m485.705 448.148c0-.7-.024-1.406-.039-2.11l-40.227 23.225-9.97 39.598 32.935-19.112s-.038.017-.093.04c10.669-6.518 17.394-21.087 17.394-41.641z" fill="url(#SVGID_11_)"/><path d="m440.481 462.108c-1.001-.278-2.019-.632-3.055-1.073-1.247-.531-2.482-1.154-3.701-1.861-10.514-6.099-18.537-23.545-16.875-36.428.566-4.386.825-9.398.825-14.312 0-3.474-.171-7.219-.49-10.936 0 0-36.625-33.168-42.1 0-4.183 25.343-.749 61.368 12.237 79.766 5.14 4.128 10.122 7.856 14.815 11.182 24.963 6.273 35.364-13.637 35.364-13.637s1.785-4.867 2.98-12.701z" fill="url(#SVGID_12_)"/><path d="m440.481 462.108c-1.001-.278-2.019-.632-3.055-1.073-1.247-.531-2.482-1.154-3.701-1.861-10.514-6.099-18.537-23.545-16.875-36.428.566-4.386.825-9.398.825-14.312 0-3.474-.171-7.219-.49-10.936 0 0-36.625-33.168-42.1 0-4.183 25.343-.749 61.368 12.237 79.766 5.14 4.128 10.122 7.856 14.815 11.182 24.963 6.273 35.364-13.637 35.364-13.637s1.785-4.867 2.98-12.701z" fill="url(#SVGID_13_)"/><g><path d="m228.312 341.831v43.295l.03.003c.019 2.567 1.889 5.269 5.549 7.382 6.727 3.884 16.902 4.305 22.728.942 2.667-1.54 3.944-3.607 3.916-5.768l.031.003v-45.856h-32.254z" fill="url(#SVGID_14_)"/><path d="m228.311 385.128 32.255 2.557v-45.854h-32.255z" fill="url(#SVGID_15_)"/></g><path d="m241.455 297.484-.008.017c-2.776-1.603-6.388-1.471-10.349.816-8.743 5.047-15.83 18.589-15.83 30.247 0 6.432 2.164 10.931 5.567 12.838l-.006.014 148.235 85.416 20.624-43.926z" fill="url(#SVGID_16_)"/><path d="m402.13 367.33c-28.672-16.554-51.915 1.018-51.915 39.247s23.243 82.639 51.915 99.193 51.915-1.018 51.915-39.247-23.243-82.639-51.915-99.193zm30.911 91.774c-1.569 18.101-13.025 26.813-27.275 20.743-1.247-.531-2.482-1.154-3.7-1.86-10.515-6.099-18.538-23.545-16.875-36.428.566-4.387.825-9.398.825-14.312 0-4.748-.314-10.003-.898-15-1.745-14.922 6.184-23.311 16.764-17.313.082.047.165.094.248.142 18.342 10.59 32.977 40.207 30.911 64.028z" fill="url(#SVGID_17_)"/></g></g></svg>