<svg width="104" height="94" viewBox="0 0 104 94" fill="none" xmlns="http://www.w3.org/2000/svg">
<path d="M92.6805 58.6521H49.4545L37.7305 44.7031H80.9565L92.6805 58.6521Z" fill="#DDEBFD"/>
<path d="M1.66602 58.6521H26.007L37.731 44.7031H13.39L1.66602 58.6521Z" fill="#DDEBFD"/>
<path d="M49.4545 58.6521L37.7305 44.7031V92.3291H80.9565V58.6521H49.4545Z" fill="#B9D7FF"/>
<path d="M26.0076 58.6521H13.3906V92.3291H37.7316V44.7031L26.0076 58.6521Z" fill="#7CB7FF"/>
<path d="M81.6388 41.9908L78.4078 38.7598C77.8525 39.4706 77.2562 40.1485 76.6218 40.7898C75.9805 41.4241 75.3027 42.0205 74.5918 42.5758L77.8228 45.8068C77.6331 46.6367 77.6572 47.5012 77.893 48.3193C78.1288 49.1373 78.5685 49.8821 79.1708 50.4838L93.7198 65.0328C94.1882 65.5009 94.7441 65.8721 95.356 66.1254C95.9678 66.3786 96.6235 66.5088 97.2857 66.5086C97.9479 66.5085 98.6035 66.3778 99.2152 66.1243C99.8269 65.8707 100.383 65.4991 100.851 65.0308C101.319 64.5624 101.69 64.0064 101.943 63.3946C102.197 62.7828 102.327 62.127 102.327 61.4649C102.326 60.8027 102.196 60.147 101.942 59.5353C101.689 58.9236 101.317 58.3679 100.849 57.8998L86.2998 43.3548C85.7084 42.742 84.9675 42.2939 84.1502 42.0547C83.3328 41.8155 82.4673 41.7935 81.6388 41.9908Z" fill="#7CB7FF"/>
<path d="M60.5125 47.4468C73.0946 47.4468 83.2945 37.247 83.2945 24.6648C83.2945 12.0827 73.0946 1.88281 60.5125 1.88281C47.9303 1.88281 37.7305 12.0827 37.7305 24.6648C37.7305 37.247 47.9303 47.4468 60.5125 47.4468Z" fill="#B9D7FF"/>
<path d="M60.5132 40.9515C58.3734 40.9596 56.2533 40.5416 54.2767 39.722C52.3001 38.9023 50.5064 37.6974 49.0002 36.1775C45.9507 33.1187 44.2383 28.9757 44.2383 24.6565C44.2383 20.3373 45.9507 16.1943 49.0002 13.1355C50.5112 11.6221 52.3058 10.4214 54.2814 9.60219C56.2569 8.78299 58.3745 8.36133 60.5132 8.36133C62.6518 8.36133 64.7695 8.78299 66.745 9.60219C68.7205 10.4214 70.5151 11.6221 72.0262 13.1355C75.0757 16.1943 76.7881 20.3373 76.7881 24.6565C76.7881 28.9757 75.0757 33.1187 72.0262 36.1775C70.52 37.6974 68.7263 38.9023 66.7496 39.722C64.773 40.5416 62.653 40.9596 60.5132 40.9515Z" fill="white"/>
<path d="M72.9014 12.2751C69.6176 8.99129 65.1638 7.14648 60.5198 7.14648C55.8759 7.14648 51.4221 8.99129 48.1383 12.2751C44.8546 15.5588 43.0098 20.0126 43.0098 24.6566C43.0098 29.3005 44.8546 33.7543 48.1383 37.0381C49.7636 38.6652 51.6937 39.9561 53.8182 40.8368C55.9427 41.7175 58.22 42.1708 60.5198 42.1708C62.8197 42.1708 65.097 41.7175 67.2215 40.8368C69.346 39.9561 71.2761 38.6652 72.9014 37.0381C76.1771 33.75 78.0163 29.2979 78.0163 24.6566C78.0163 20.0153 76.1771 15.5631 72.9014 12.2751ZM71.1803 35.3171C69.0719 37.4258 66.3854 38.8619 63.4607 39.4438C60.536 40.0256 57.5044 39.7271 54.7494 38.5861C51.9943 37.445 49.6395 35.5125 47.9828 33.0331C46.326 30.5536 45.4418 27.6386 45.4418 24.6566C45.4418 21.6746 46.326 18.7595 47.9828 16.2801C49.6395 13.8006 51.9943 11.8682 54.7494 10.7271C57.5044 9.58599 60.536 9.28751 63.4607 9.86938C66.3854 10.4513 69.0719 11.8874 71.1803 13.9961C72.5926 15.3891 73.714 17.0488 74.4794 18.8789C75.2448 20.709 75.6389 22.6729 75.6389 24.6566C75.6389 26.6402 75.2448 28.6042 74.4794 30.4342C73.714 32.2643 72.5926 33.924 71.1803 35.3171Z" fill="#1576ED"/>
<path d="M101.725 57.0115L87.1762 42.4655C86.5125 41.802 85.7078 41.2966 84.822 40.9869C83.9361 40.6772 82.9918 40.5711 82.0592 40.6765L80.0132 38.6305C83.549 33.7185 85.1071 27.656 84.378 21.6479C83.6489 15.6398 80.686 10.1259 76.078 6.20218C71.47 2.27843 65.5544 0.232062 59.5069 0.469786C53.4594 0.70751 47.7227 3.21192 43.4369 7.48528C39.1512 11.7586 36.6302 17.4881 36.375 23.5349C36.1197 29.5817 38.149 35.5032 42.0594 40.1225C45.9698 44.7418 51.4751 47.7207 57.481 48.4672C63.487 49.2136 69.554 47.673 74.4762 44.1515L76.5222 46.1975C76.4129 47.1297 76.5168 48.0746 76.8262 48.9607C77.1356 49.8468 77.6424 50.651 78.3082 51.3125L92.8592 65.8655C94.0328 67.0412 95.6254 67.7026 97.2866 67.7041C98.9478 67.7056 100.542 67.0471 101.717 65.8735C102.893 64.7 103.554 63.1074 103.556 61.4462C103.557 59.785 102.899 58.1912 101.725 57.0155V57.0115ZM45.2652 39.9115C41.7385 36.384 39.5441 31.7427 39.0557 26.7785C38.5673 21.8144 39.8152 16.8344 42.5869 12.6872C45.3585 8.54 49.4824 5.48209 54.2558 4.03447C59.0293 2.58686 64.157 2.83912 68.7653 4.74827C73.3736 6.65742 77.1774 10.1053 79.5286 14.5046C81.8798 18.9038 82.633 23.9822 81.6597 28.8745C80.6864 33.7667 78.047 38.1702 74.1911 41.3346C70.3352 44.499 65.5014 46.2285 60.5132 46.2285C57.6802 46.2372 54.8737 45.6835 52.2562 44.5995C49.6388 43.5155 47.2625 41.9227 45.2652 39.9135V39.9115ZM100.004 64.1565C99.6493 64.5117 99.2278 64.7935 98.764 64.9857C98.3001 65.178 97.8029 65.2769 97.3007 65.2769C96.7986 65.2769 96.3014 65.178 95.8375 64.9857C95.3736 64.7935 94.9522 64.5117 94.5972 64.1565L80.0472 49.6075C79.594 49.1503 79.2628 48.5866 79.084 47.9681C78.9053 47.3496 78.8847 46.6961 79.0242 46.0675C79.0704 45.8686 79.0648 45.6612 79.0079 45.4651C78.951 45.269 78.8447 45.0908 78.6992 44.9475L76.3932 42.6415C76.7662 42.3165 77.1402 42.0085 77.4812 41.6505C77.8382 41.2935 78.1472 40.9195 78.4722 40.5625L80.7782 42.8655C80.9216 43.011 81.0998 43.1172 81.2959 43.1741C81.4919 43.231 81.6993 43.2366 81.8982 43.1905C82.53 43.0427 83.1891 43.0594 83.8126 43.239C84.436 43.4187 85.003 43.7552 85.4592 44.2165L100.004 58.7655C100.362 59.1206 100.645 59.5433 100.837 60.0089C101.029 60.4745 101.127 60.9738 101.124 61.4775C101.127 61.9764 101.029 62.4706 100.836 62.9308C100.644 63.3911 100.361 63.8079 100.004 64.1565Z" fill="#1576ED"/>
<path d="M26.932 59.448L37.732 46.604L48.532 59.448C48.6445 59.5848 48.7858 59.695 48.9459 59.7707C49.106 59.8465 49.2809 59.8858 49.458 59.886H80.485C80.8081 59.886 81.1179 59.7576 81.3463 59.5292C81.5747 59.3008 81.703 58.991 81.703 58.668C81.703 58.3449 81.5747 58.0351 81.3463 57.8067C81.1179 57.5783 80.8081 57.45 80.485 57.45H50.023L40.345 45.938H41.499C41.8221 45.938 42.1319 45.8096 42.3603 45.5812C42.5887 45.3528 42.717 45.043 42.717 44.72C42.717 44.3969 42.5887 44.0871 42.3603 43.8587C42.1319 43.6303 41.8221 43.502 41.499 43.502H13.39C13.2129 43.5021 13.038 43.5415 12.8779 43.6172C12.7178 43.6929 12.5765 43.8031 12.464 43.94L0.740032 57.889C0.58778 58.0649 0.489544 58.2811 0.457113 58.5115C0.424682 58.7419 0.459435 58.9768 0.557201 59.188C0.654967 59.3991 0.811592 59.5776 1.00828 59.7019C1.20496 59.8263 1.43335 59.8912 1.66603 59.889H26.007C26.1828 59.8808 26.3552 59.8376 26.5141 59.7619C26.6729 59.6861 26.815 59.5794 26.932 59.448ZM4.28003 57.434L13.958 45.922H35.116L25.438 57.434H4.28003Z" fill="#1576ED"/>
<path d="M56.1931 80.6543H43.4621C43.1391 80.6543 42.8293 80.7826 42.6009 81.011C42.3725 81.2395 42.2441 81.5493 42.2441 81.8723C42.2441 82.1953 42.3725 82.5051 42.6009 82.7336C42.8293 82.962 43.1391 83.0903 43.4621 83.0903H56.1931C56.5162 83.0903 56.826 82.962 57.0544 82.7336C57.2828 82.5051 57.4111 82.1953 57.4111 81.8723C57.4111 81.5493 57.2828 81.2395 57.0544 81.011C56.826 80.7826 56.5162 80.6543 56.1931 80.6543Z" fill="#1576ED"/>
<path d="M56.1931 85.3789H43.4621C43.1391 85.3789 42.8293 85.5072 42.6009 85.7356C42.3725 85.9641 42.2441 86.2739 42.2441 86.5969C42.2441 86.9199 42.3725 87.2297 42.6009 87.4582C42.8293 87.6866 43.1391 87.8149 43.4621 87.8149H56.1931C56.5162 87.8149 56.826 87.6866 57.0544 87.4582C57.2828 87.2297 57.4111 86.9199 57.4111 86.5969C57.4111 86.2739 57.2828 85.9641 57.0544 85.7356C56.826 85.5072 56.5162 85.3789 56.1931 85.3789Z" fill="#1576ED"/>
<path d="M66.2457 18.933C66.0164 18.7067 65.7073 18.5799 65.3852 18.5799C65.0631 18.5799 64.7539 18.7067 64.5247 18.933L60.5137 22.947L56.5027 18.936C56.3901 18.821 56.2559 18.7295 56.1077 18.6667C55.9596 18.6039 55.8004 18.5712 55.6395 18.5703C55.4786 18.5695 55.3191 18.6005 55.1703 18.6617C55.0215 18.7229 54.8862 18.813 54.7725 18.9268C54.6587 19.0405 54.5686 19.1758 54.5074 19.3246C54.4462 19.4734 54.4152 19.6329 54.416 19.7938C54.4169 19.9547 54.4496 20.1139 54.5124 20.262C54.5752 20.4102 54.6667 20.5444 54.7817 20.657L58.7927 24.668L54.7817 28.679C54.5554 28.9082 54.4286 29.2174 54.4286 29.5395C54.4286 29.8616 54.5554 30.1707 54.7817 30.4C54.8946 30.5132 55.0287 30.6031 55.1763 30.6644C55.324 30.7257 55.4823 30.7572 55.6422 30.7572C55.8021 30.7572 55.9604 30.7257 56.108 30.6644C56.2557 30.6031 56.3898 30.5132 56.5027 30.4L60.5137 26.389L64.5247 30.4C64.6376 30.5132 64.7717 30.6031 64.9193 30.6644C65.067 30.7257 65.2253 30.7572 65.3852 30.7572C65.5451 30.7572 65.7034 30.7257 65.851 30.6644C65.9987 30.6031 66.1328 30.5132 66.2457 30.4C66.472 30.1707 66.5988 29.8616 66.5988 29.5395C66.5988 29.2174 66.472 28.9082 66.2457 28.679L62.2357 24.665L66.2467 20.654C66.3618 20.5422 66.4532 20.4084 66.5157 20.2606C66.5781 20.1128 66.6103 19.9539 66.6103 19.7935C66.6103 19.633 66.5781 19.4742 66.5157 19.3264C66.4532 19.1786 66.3608 19.0448 66.2457 18.933Z" fill="#1576ED"/>
<path d="M80.9569 62.3057C80.6347 62.3081 80.3265 62.437 80.0986 62.6647C79.8707 62.8924 79.7415 63.2006 79.7389 63.5227V91.1117H38.9489V52.2707C38.9489 51.9477 38.8205 51.6379 38.5921 51.4095C38.3637 51.1811 38.0539 51.0527 37.7309 51.0527C37.4078 51.0527 37.098 51.1811 36.8696 51.4095C36.6412 51.6379 36.5129 51.9477 36.5129 52.2707V91.1117H14.6079V63.5227C14.6079 63.1997 14.4796 62.8899 14.2511 62.6615C14.0227 62.4331 13.7129 62.3047 13.3899 62.3047C13.0668 62.3047 12.757 62.4331 12.5286 62.6615C12.3002 62.8899 12.1719 63.1997 12.1719 63.5227V92.3297C12.1742 92.652 12.3033 92.9605 12.5312 93.1884C12.7591 93.4163 13.0676 93.5454 13.3899 93.5477H80.9569C81.2792 93.5454 81.5876 93.4163 81.8155 93.1884C82.0434 92.9605 82.1725 92.652 82.1749 92.3297V63.5227C82.1723 63.2006 82.0431 62.8924 81.8152 62.6647C81.5873 62.437 81.279 62.3081 80.9569 62.3057Z" fill="#1576ED"/>
</svg>
