<svg xmlns="http://www.w3.org/2000/svg" viewBox="0 0 103.101 92.882"><g data-name="Group 27579" transform="translate(1.215 1.218)"><path fill="#ddebfd" d="M91.015 56.769H47.789L36.065 42.82h43.226Z" data-name="Path 21918"/><path fill="#ddebfd" d="M0 56.769h24.341L36.065 42.82H11.724Z" data-name="Path 21919"/><path fill="#b9d7ff" d="M47.789 56.769 36.065 42.82v47.626h43.226V56.769Z" data-name="Path 21920"/><path fill="#7cb7ff" d="M24.341 56.769H11.724v33.677h24.341V42.82Z" data-name="Path 21921"/><path fill="#7cb7ff" d="m79.972 40.108-3.231-3.231a23.155 23.155 0 0 1-1.786 2.03 23.155 23.155 0 0 1-2.03 1.786l3.231 3.231a5.027 5.027 0 0 0 1.348 4.677L92.053 63.15a5.042 5.042 0 0 0 7.129-7.133L84.633 41.472a4.9 4.9 0 0 0-4.661-1.364Z" data-name="Path 21922"/><circle cx="22.782" cy="22.782" r="22.782" fill="#b9d7ff" data-name="Ellipse 1486" transform="translate(36.065)"/><path fill="#fff" d="M58.847 39.069a16.123 16.123 0 0 1-11.513-4.774 16.318 16.318 0 0 1 0-23.042 16.269 16.269 0 0 1 23.026 0 16.318 16.318 0 0 1 0 23.042 16.123 16.123 0 0 1-11.513 4.774Z" data-name="Path 21923"/></g><g fill="#1576ed" data-name="Group 27580"><path d="M72.451 11.61a17.51 17.51 0 0 0-24.763 24.763 17.5 17.5 0 0 0 24.763 0 17.543 17.543 0 0 0 0-24.763ZM70.73 34.652a15.077 15.077 0 1 1 0-21.321 14.974 14.974 0 0 1 0 21.321Z" data-name="Path 21924"/><path d="M101.274 56.346 86.725 41.8a6.245 6.245 0 0 0-5.117-1.789l-2.046-2.046a24.1 24.1 0 1 0-5.537 5.521l2.046 2.046a6.193 6.193 0 0 0 1.786 5.115L92.408 65.2a6.264 6.264 0 1 0 8.866-8.85Zm-56.46-17.1a21.561 21.561 0 1 1 15.248 6.317 21.408 21.408 0 0 1-15.248-6.315Zm54.739 24.245a3.822 3.822 0 0 1-5.407 0l-14.55-14.549a3.845 3.845 0 0 1-1.023-3.54 1.193 1.193 0 0 0-.325-1.12l-2.306-2.306c.373-.325.747-.633 1.088-.991.357-.357.666-.731.991-1.088l2.306 2.303a1.194 1.194 0 0 0 1.12.325 3.793 3.793 0 0 1 3.561 1.026L99.553 58.1a3.794 3.794 0 0 1 1.12 2.712 3.72 3.72 0 0 1-1.12 2.679Z" data-name="Path 21925"/><path d="m26.481 58.782 10.8-12.844 10.8 12.844a1.2 1.2 0 0 0 .926.438h31.027a1.218 1.218 0 0 0 0-2.436H49.572l-9.678-11.512h1.154a1.218 1.218 0 0 0 0-2.436H12.939a1.2 1.2 0 0 0-.926.438L.289 57.223a1.209 1.209 0 0 0 .926 2h24.341a1.32 1.32 0 0 0 .925-.441ZM3.829 56.768l9.678-11.512h21.158l-9.678 11.512Z" data-name="Path 21926"/><path d="M55.743 79.989H43.012a1.218 1.218 0 0 0 0 2.436h12.731a1.218 1.218 0 0 0 0-2.436Z" data-name="Path 21927"/><path d="M55.743 84.714H43.012a1.218 1.218 0 0 0 0 2.436h12.731a1.218 1.218 0 0 0 0-2.436Z" data-name="Path 21928"/><path d="M65.794 18.268a1.225 1.225 0 0 0-1.721 0l-4.011 4.014-4.011-4.011a1.217 1.217 0 1 0-1.721 1.721l4.011 4.011-4.011 4.011a1.225 1.225 0 0 0 0 1.721 1.215 1.215 0 0 0 1.721 0l4.011-4.011 4.011 4.011a1.215 1.215 0 0 0 1.721 0 1.225 1.225 0 0 0 0-1.721L61.784 24l4.011-4.011a1.2 1.2 0 0 0 0-1.721Z" data-name="Path 21929"/><path d="M80.506 61.64a1.227 1.227 0 0 0-1.218 1.217v27.589h-40.79V51.605a1.218 1.218 0 1 0-2.436 0v38.841H14.157V62.857a1.218 1.218 0 0 0-2.436 0v28.807a1.227 1.227 0 0 0 1.218 1.218h67.567a1.227 1.227 0 0 0 1.218-1.218V62.857a1.227 1.227 0 0 0-1.218-1.217Z" data-name="Path 21930"/></g></svg>