<svg xmlns="http://www.w3.org/2000/svg" width="219.998" height="196" viewBox="0 0 219.998 196"><g transform="translate(2.952)"><g transform="translate(134.867)"><rect width="79.228" height="85.004" fill="#404363"/><g transform="translate(4.682 4.25)"><rect width="32.411" height="76.504" transform="translate(37.273)" fill="#fff"/><rect width="32.411" height="76.504" fill="#fff"/></g></g><g transform="translate(0 72.744)" opacity="0.5"><path d="M27.484,64.733H23.7V61.3H21.181v3.433H17.4v2.289h3.781v3.433H23.7V67.021h3.781Z" transform="translate(-17.4 -61.3)" fill="#404363"/></g><g transform="translate(100.835 12.097)" opacity="0.5"><path d="M83.484,27.633H79.7V24.2H77.181v3.433H73.4v2.289h3.781v3.433H79.7V29.921h3.781Z" transform="translate(-73.4 -24.2)" fill="#404363"/></g></g><g transform="translate(0 44.619)"><g transform="translate(133.967 49.866)"><g transform="translate(0 49.041)"><path d="M90.952,152.987h-.36a.579.579,0,0,1-.36-.817l21.427-47.079a.75.75,0,0,1,.72-.49H144.07a.75.75,0,0,1,.72.49L164.237,150.7c.18.327,0,.817-.36.817-.36.163-.9,0-.9-.327L143.71,106.071H112.919L91.672,152.5A.966.966,0,0,1,90.952,152.987Z" transform="translate(-90.161 -104.6)" fill="#404363"/></g><g transform="translate(11.884 49.041)"><path d="M97.552,152.987h-.36a.579.579,0,0,1-.36-.817l21.427-47.079a.75.75,0,0,1,.72-.49H150.67a.75.75,0,0,1,.72.49L170.837,150.7c.18.327,0,.817-.36.817-.36.163-.9,0-.9-.327L150.31,106.071H119.519L98.272,152.66A.969.969,0,0,1,97.552,152.987Z" transform="translate(-96.761 -104.6)" fill="#404363"/></g><g transform="translate(38.784)"><g transform="translate(4.682)"><path d="M138.969,118.573H114.3l11.164-40.867a4.6,4.6,0,0,1,4.5-3.106h15.125c3.061,0,5.222,2.616,4.5,5.231Z" transform="translate(-114.3 -74.6)" fill="#efefef"/></g><path d="M136.369,118.573H111.7l11.164-40.867a4.6,4.6,0,0,1,4.5-3.106h15.125c3.061,0,5.222,2.616,4.5,5.231Z" transform="translate(-111.7 -74.6)" fill="#136afb"/><g transform="translate(6.842 9.972)"><g transform="translate(5.942)"><path d="M135.546,81.681H119.34q-.54,0-.54-.49t.54-.49h16.206q.54,0,.54.49C136.086,81.517,135.726,81.681,135.546,81.681Z" transform="translate(-118.8 -80.7)" fill="#e3e6ff"/></g><g transform="translate(3.061 8.827)"><path d="M133.946,87.081H117.74q-.54,0-.54-.49t.54-.49h16.206q.54,0,.54.49Q134.216,87.081,133.946,87.081Z" transform="translate(-117.2 -86.1)" fill="#e3e6ff"/></g><g transform="translate(0 17.818)"><path d="M132.246,92.581H116.04q-.54,0-.54-.49t.54-.49h16.206q.54,0,.54.49A.547.547,0,0,1,132.246,92.581Z" transform="translate(-115.5 -91.6)" fill="#e3e6ff"/></g></g></g><g transform="translate(18.077 41.194)"><path d="M146.116,107.32H104.341a3.9,3.9,0,0,1-4.141-3.76h0a3.9,3.9,0,0,1,4.141-3.76h41.774a3.9,3.9,0,0,1,4.141,3.76h0A3.9,3.9,0,0,1,146.116,107.32Z" transform="translate(-100.2 -99.8)" fill="#efefef"/></g></g><g transform="translate(89.922)"><g transform="translate(0 29.168)"><g transform="translate(0 12.681)"><g transform="translate(0 15.732)"><g transform="translate(1.441 2.746)"><path d="M69.921,81a12.641,12.641,0,0,1-2.341,2.616,2.307,2.307,0,0,1-1.08.327l1.08-2.125Z" transform="translate(-66.5 -81)" fill="#ba6552"/></g><g transform="translate(0 0.294)"><path d="M70.922,79.5,65.7,82.442s.18.327.9.327a23.46,23.46,0,0,0,2.341-.817Z" transform="translate(-65.7 -79.5)" fill="#ba6552"/></g><g transform="translate(0.155)"><path d="M81.477,79.941s-9.183-1.144-10.624-.327-4.682,3.76-5.042,4.741,3.241-.981,4.321-1.308c.72-.327,2.881.163,3.961.49,1.26.327,2.341.327,3.241.49a3.746,3.746,0,0,0,4.141-3.269Z" transform="translate(-65.786 -79.32)" fill="#ba6552"/></g></g><g transform="translate(12.424)"><path d="M72.6,85.722l20.527-6.212,11.344-8.664a4.763,4.763,0,0,1,4.862-.817h0a3.761,3.761,0,0,1,1.08,6.539L100.15,84.251l-2.341,1.635L72.6,89.646Z" transform="translate(-72.6 -69.696)" fill="#ba6552"/></g></g><g transform="translate(42.495)"><path d="M111.268,63.674c1.26.981,1.621,3.923.72,5.231a38.355,38.355,0,0,1-9.723,10.626l-5.4,3.923L89.3,75.28,102.264,64S105.866,59.587,111.268,63.674Z" transform="translate(-89.3 -61.938)" fill="#29bfe2"/><g transform="translate(11.704 7.293)"><path d="M101.022,72.939h0A15.439,15.439,0,0,1,95.8,66.563c0-.163,0-.163.18-.163s.18,0,.18.163a12.869,12.869,0,0,0,4.862,6.048c.18,0,.18.163,0,.327Z" transform="translate(-95.8 -66.4)" fill="#404363"/></g><g transform="translate(9.543 9.091)"><path d="M100.362,73.221h0A19.7,19.7,0,0,1,94.6,67.663V67.5h.18a20.873,20.873,0,0,0,5.582,5.394c.18.163.18.327,0,.327Z" transform="translate(-94.6 -67.5)" fill="#404363"/></g><g transform="translate(2.161 11.217)"><path d="M97.342,75.829h0L90.5,68.963V68.8h.18l6.662,6.866c.18,0,.18.163,0,.163Z" transform="translate(-90.5 -68.8)" fill="#404363"/></g><g transform="translate(4.682 9.745)"><path d="M96.582,72.641h0L91.9,68.063V67.9h.18l4.682,4.741c0-.163,0,0-.18,0Z" transform="translate(-91.9 -67.9)" fill="#404363"/></g><g transform="translate(8.283 15.14)"><path d="M97.321,74.633h0L93.9,71.363V71.2h.18l3.241,3.106c.18,0,.18.163,0,.327Z" transform="translate(-93.9 -71.2)" fill="#404363"/></g></g><g transform="translate(37.792 13.111)"><path d="M0,0,6.416.3l.5,10.378L.5,10.378Z" transform="translate(0 4.559) rotate(-39.318)" fill="#404363"/><g transform="translate(4.162 1.702)"><path d="M95.122,73.779A3.075,3.075,0,1,1,92.061,71,2.8,2.8,0,0,1,95.122,73.779Z" transform="translate(-89 -71)" fill="#999"/><g transform="translate(0.72 0.636)"><path d="M94.262,73.532a2.55,2.55,0,0,1-2.341,2.289A2.6,2.6,0,0,1,89.4,73.7a2.55,2.55,0,0,1,2.341-2.289A2.148,2.148,0,0,1,94.262,73.532Z" transform="translate(-89.4 -71.389)" fill="#fff"/></g><rect width="1.441" height="0.327" transform="translate(3.061 2.616)" fill="#404363"/></g></g></g><g transform="translate(5.582 61.636)"><g transform="translate(0 68.984)"><g transform="translate(2.481)"><path d="M89.124,127.433c.18-.817.72-2.125,1.08-3.433H84.082l-.18.49a13.193,13.193,0,0,1-2.521,4.087c-1.981,1.8-3.6,3.923-6.122,4.9-.36.163-.54.163-.9.327-2.341.817-4.5,1.471-4.141,2.125s2.161,1.8,6.662,1.144c4.682-.654,3.6-1.308,7.022-1.308s6.3-.49,6.122-2.289a7.979,7.979,0,0,0-.54-1.962A7.8,7.8,0,0,1,89.124,127.433Z" transform="translate(-70.178 -124)" fill="#c27c65"/></g><g transform="translate(0 4.741)"><path d="M87.346,130.66a3.191,3.191,0,0,0,3.061-2.289l-.18-1.144,1.26.981.54,5.721a.773.773,0,0,1-.72.817l-21.607,1.8c-.54,0-.9-.327-.9-.654v-1.308a1.848,1.848,0,0,1,1.621-1.962l5.762-1.635,3.961-3.106,1.08-.981,1.8.981,1.8,1.8a3.74,3.74,0,0,0,2.521.981Z" transform="translate(-68.8 -126.9)" fill="#46507d"/><g transform="translate(8.103 2.779)"><path d="M75.281,129.254H73.66a.328.328,0,1,1,0-.654h1.621a.371.371,0,0,1,.36.327C75.461,129.09,75.461,129.254,75.281,129.254Z" transform="translate(-73.3 -128.6)" fill="#e6e6e6"/></g><g transform="translate(9.183 1.635)"><path d="M75.881,128.554H74.26a.328.328,0,1,1,0-.654h1.621a.371.371,0,0,1,.36.327C76.241,128.554,76.061,128.554,75.881,128.554Z" transform="translate(-73.9 -127.9)" fill="#e6e6e6"/></g><g transform="translate(10.444 0.654)"><path d="M76.761,127.954h-1.8a.328.328,0,1,1,0-.654h1.8a.328.328,0,1,1,0,.654Z" transform="translate(-74.6 -127.3)" fill="#e6e6e6"/></g><g transform="translate(0 6.375)"><path d="M68.8,132.762v.654c0,.49.36.654.9.654l21.607-1.8c.54,0,.72-.327.72-.817V130.8Z" transform="translate(-68.8 -130.8)" fill="#e6e6e6"/></g></g></g><g transform="translate(13.325)"><path d="M123.016,81.8,120.5,94.878l-23.588,7.356L91.865,103.7a1.422,1.422,0,0,0-.9.817l-1.26,1.962s-13.325,47.57-13.5,47.9a9.684,9.684,0,0,0,4.682,1.8c3.781.327,4.5-1.8,4.5-1.8.18-.49,10.444-22.232,10.444-22.232l2.881-12.26,2.341-3.923h.18l36.012-5.721c4.322-.817,7.563-4.25,7.383-8.337l-.54-15.857Z" transform="translate(-76.2 -81.8)" fill="#46507d"/></g></g><g transform="translate(23.588 63.597)"><g transform="translate(3.05 74.379)"><path d="M99.232,133.731a7.209,7.209,0,0,1-1.08-3.923.913.913,0,0,1,.18-.654l-5.942-.654a15.119,15.119,0,0,1-1.621,3.269c-1.8,2.125-3.061,4.25-5.4,5.558a2.015,2.015,0,0,1-.9.327c-2.161,1.144-4.141,1.962-3.961,2.452.36.49,2.341,1.471,6.842.327s3.421-1.635,6.842-2.125c3.241-.49,6.122-1.144,5.762-2.942A4.024,4.024,0,0,0,99.232,133.731Z" transform="translate(-80.494 -128.5)" fill="#c27c65"/></g><g transform="translate(0 77.812)"><path d="M97.346,134.36a3.191,3.191,0,0,0,3.061-2.289l-.18-1.144,1.26.981.54,5.721a.773.773,0,0,1-.72.817l-21.607,1.8c-.54,0-.9-.327-.9-.654v-1.308a1.848,1.848,0,0,1,1.621-1.962l5.762-1.635,3.961-3.106,1.08-.981,1.8.981,1.8,1.8a2.9,2.9,0,0,0,2.521.981Z" transform="translate(-78.8 -130.6)" fill="#576096"/><g transform="translate(7.923 2.942)"><path d="M85.181,133.054H83.56a.328.328,0,1,1,0-.654h1.621a.328.328,0,1,1,0,.654Z" transform="translate(-83.2 -132.4)" fill="#e6e6e6"/></g><g transform="translate(9.003 1.798)"><path d="M85.961,132.354h-1.8a.328.328,0,1,1,0-.654h1.8a.371.371,0,0,1,.36.327C86.321,132.19,85.961,132.354,85.961,132.354Z" transform="translate(-83.8 -131.7)" fill="#e6e6e6"/></g><g transform="translate(10.264 0.817)"><path d="M86.661,131.754h-1.8a.328.328,0,1,1,0-.654h1.8a.328.328,0,1,1,0,.654Z" transform="translate(-84.5 -131.1)" fill="#e6e6e6"/></g><g transform="translate(0 6.539)"><path d="M78.8,136.562v.654c0,.49.36.654.9.654l21.608-1.8c.54,0,.72-.327.72-.817V134.6Z" transform="translate(-78.8 -134.6)" fill="#e6e6e6"/></g></g><g transform="translate(12.965)"><path d="M116.431,83l-.9,13.241-22.688,9.645-4.862,1.962a2.081,2.081,0,0,0-.9.817l-.9,2.125s-.18,49.2-.18,49.368a10.445,10.445,0,0,0,5.042.654c3.781-.49,3.961-2.779,3.961-2.779,0-.49,4.141-23.867,4.141-23.867l-.36-12.424v-2.616h.18l35.292-9.154a8.245,8.245,0,0,0,6.3-8.991l-2.341-15.693Z" transform="translate(-86 -83)" fill="#576096"/></g></g><g transform="translate(55.816 25.763)"><path d="M102.644,85.1a26.268,26.268,0,0,1,1.08,7.52c.18,3.106-.36,6.212-.54,9.318-.18,2.942-.18,5.721-.18,8.664,9.9,2.289,19.087,2.616,28.99-.327.36-.163-1.08-9.318-1.08-10.135-1.08-9.645-2.341-20.434-7.563-29.1a23.5,23.5,0,0,0-7.022-7.847c-4.321-3.106-10.984-4.741-15.846-1.8A18.883,18.883,0,0,0,98.5,62.871c-3.241,3.106-1.441,8.337.18,11.606A108.713,108.713,0,0,1,102.644,85.1Z" transform="translate(-96.698 -59.856)" fill="#45d3ff"/><g transform="translate(6.486 14.458)"><path d="M122.268,91.259c-.72-3.76-4.5-18.962-5.762-22.559v2.942c0,3.433-.18,7.193-1.441,10.462a11.188,11.188,0,0,1-5.582,6.7c-2.7,1.308-5.762.981-8.823,1.308-.18,2.125-.36,4.25-.36,6.212v.981c6.122-.981,12.244-1.144,18.366-1.8A3.729,3.729,0,0,0,122.268,91.259Z" transform="translate(-100.3 -68.7)" fill="#29bfe2"/></g></g><g transform="translate(54.559 11.287)"><path d="M105,71.924h0c2.341-.327,3.781-2.779,3.061-5.394L104.463,51,96,52.471,99.6,68C100.322,70.453,102.662,72.251,105,71.924Z" transform="translate(-96 -51)" fill="#e89a85"/><g transform="translate(0.18)"><path d="M101.322,70.78a13.112,13.112,0,0,0,4.682-6.7c.36-.981.54-1.962.9-2.942L104.563,51,96.1,52.471,99.7,68A4.962,4.962,0,0,0,101.322,70.78Z" transform="translate(-96.1 -51)" fill="#d37f6c"/></g></g><g transform="translate(44.594)"><g transform="translate(1.184 2.289)"><path d="M101.345,71.985h0c4.682-.981,9.9-7.193,8.823-11.606l-1.8-8.5c-.9-3.923-4.862-6.539-9.183-6.375h0c-5.222.327-8.823,4.741-7.923,9.481l1.8,8.5C94.142,67.9,99.364,72.312,101.345,71.985Z" transform="translate(-91.123 -45.496)" fill="#e89a85"/></g><path d="M108.894,57.181a3.835,3.835,0,0,0-1.8-1.471,10.293,10.293,0,0,0-2.161-.49,3.075,3.075,0,0,1-2.161-3.6,17.494,17.494,0,0,1-6.662,3.106c-1.621.327-2.881.327-3.781-.49a7.373,7.373,0,0,0,0,3.433c.18.817.36,1.471.54,2.452.18.654.18,1.308.36,1.8A10.439,10.439,0,0,1,91.788,58c-.9-2.942-2.161-6.048-.54-8.991a9.921,9.921,0,0,1,5.222-4.25,12.141,12.141,0,0,1,6.842-.327,18.627,18.627,0,0,1,3.241,1.308,6.168,6.168,0,0,1,2.521,2.616,3.263,3.263,0,0,1,2.881,1.144,5.371,5.371,0,0,1,1.08,2.779,16.82,16.82,0,0,1-2.161,12.1c0-.163-.54-2.452-.72-3.106-.36-1.144-.54-2.289-.9-3.433C109.074,57.671,109.074,57.344,108.894,57.181Z" transform="translate(-90.466 -44.095)" fill="#404363"/><g transform="translate(2.402 12.367)"><g transform="translate(1.62 4.151)"><path d="M94.321,56c-.18-.49-.18-.981-.36-1.308,0-.327-.54-.49-.72-.49a.884.884,0,0,0-.54.654c.18.49.18.981.36,1.308,0,.327.54.49.72.49a.584.584,0,0,0,.54-.654Z" transform="translate(-92.7 -54.2)" fill="#404363"/></g><g transform="translate(4.247 6.276)"><path d="M94.953,58.606h-.18a.706.706,0,0,1-.54-.163c-.18-.327,0-.49.18-.654a3,3,0,0,0,.36-2.125c0-.163,0-.163.18-.163s.18,0,.18.163a2.41,2.41,0,0,1-.36,2.452.557.557,0,0,1-.18.327h.18a3.842,3.842,0,0,0,1.441-.163c.18,0,.18,0,.18.163s0,.163-.18.163Z" transform="translate(-94.159 -55.5)" fill="#404363"/></g><g transform="translate(8.463 3.007)"><path d="M98.121,55.3c-.18-.49-.18-.981-.36-1.308,0-.327-.54-.49-.72-.49a.884.884,0,0,0-.54.654c.18.49.18.981.36,1.308,0,.327.54.49.72.49a.584.584,0,0,0,.54-.654Z" transform="translate(-96.5 -53.5)" fill="#404363"/></g><g transform="translate(0 1.535)"><path d="M91.98,53.581h0c-.18-.163-.18-.163-.18-.327a2.73,2.73,0,0,1,1.8-.654.166.166,0,0,1,.18.163c0,.163-.18.163-.18.163a2.311,2.311,0,0,0-1.621.654Z" transform="translate(-91.8 -52.6)" fill="#404363"/></g><g transform="translate(7.923)"><path d="M96.38,52.379h0a.486.486,0,0,1-.18-.327,3.2,3.2,0,0,1,2.161-.327.166.166,0,0,1,.18.163c0,.163-.18.163-.18.163a4.6,4.6,0,0,0-1.981.327Z" transform="translate(-96.2 -51.661)" fill="#404363"/></g></g><g transform="translate(18.02 12.911)"><path d="M104.483,54.129a2.7,2.7,0,0,1-1.8,3.106.824.824,0,0,1-1.08-.49l-1.08-3.76c-.18-.327.18-.654.54-.817A2.593,2.593,0,0,1,104.483,54.129Z" transform="translate(-100.473 -51.994)" fill="#e89a85"/><g transform="translate(1.128 0.924)"><path d="M102.18,55.569s-.18,0-.18-.163,0-.163.18-.163c0,0,.18,0,.18-.163v-.163l-.18-.163H102l-.18.163-.18-.163c-.18-.327-.54-.654-.54-.981a1.167,1.167,0,0,1,.54-1.144,1.29,1.29,0,0,1,1.08.163v.163h-.18a.705.705,0,0,0-.54-.163.633.633,0,0,0-.36.654c0,.327.18.49.36.817h.36c.18,0,.36.163.54.327v.49c-.36.327-.54.49-.72.49Z" transform="translate(-101.1 -52.559)" fill="#404363"/></g></g><g transform="translate(3.483 12.488)"><g transform="translate(0 5.107)"><path d="M106.625,59.83a9.041,9.041,0,0,1,.18,3.106,3.226,3.226,0,0,1-1.621,2.125,7.616,7.616,0,0,1-9.9-.817A10.41,10.41,0,0,1,92.4,58.523c0-.49,4.322-1.308,4.862-1.308,2.341-.163,4.322-1.308,6.482-2.125a1.29,1.29,0,0,1,1.08-.163c.54.163.72.654.9,1.144A36.326,36.326,0,0,0,106.625,59.83Z" transform="translate(-92.4 -54.859)" fill="#fff"/></g><g transform="translate(11.046)"><path d="M99.013,59.2h-.18c-.36-.163-.36-.49-.18-.654l3.421-6.539a.467.467,0,0,1,.72-.163c.36.163.36.49.18.654l-3.421,6.539A1.94,1.94,0,0,1,99.013,59.2Z" transform="translate(-98.534 -51.734)" fill="#fff"/></g><g transform="translate(13.386 5.111)"><path d="M100.313,62.771h-.18c-.36-.163-.36-.49-.18-.654a24.706,24.706,0,0,0,2.881-6.866c0-.327.36-.49.72-.327a.413.413,0,0,1,.36.654,25.825,25.825,0,0,1-2.881,7.029C100.673,62.608,100.493,62.771,100.313,62.771Z" transform="translate(-99.834 -54.861)" fill="#fff"/></g></g></g><g transform="translate(36.167 29.81)"><g transform="translate(0 5.181)"><g transform="translate(0 26.164)"><g transform="translate(1.466 2.443)"><path d="M90.2,83s-1.8,2.289-2.521,2.452a1.441,1.441,0,0,1-1.08.163l1.26-2.125Z" transform="translate(-86.6 -83)" fill="#c27c65"/></g><g transform="translate(0.025 0.154)"><path d="M91.2,81.6l-5.4,2.452s.18.327.9.327a9.735,9.735,0,0,0,2.341-.654Z" transform="translate(-85.8 -81.6)" fill="#ba6552"/></g><path d="M101.837,82.641s-9.183-1.635-10.624-.981c-1.44.817-5.042,3.433-5.4,4.414s3.241-.817,4.5-.981c.72-.163,2.881.49,3.781.654,1.26.327,2.161.49,3.061.654a3.913,3.913,0,0,0,4.322-2.942Z" transform="translate(-85.786 -81.506)" fill="#c27c65"/></g><g transform="translate(12.63)"><path d="M92.8,92.309l23.048-5.885-3.961-19.289,7.743-1.635,4.682,25.828L121.97,92.8,92.8,96.4Z" transform="translate(-92.8 -65.5)" fill="#c27c65"/></g></g><g transform="translate(13.53)"><path d="M118.509,63.588c1.981,1.471,2.7,3.76,3.241,5.885.54,2.452,3.241,17.491,4.141,22.722.36,1.962-2.881,3.433-2.881,3.433L97.081,99.061,93.3,93.5l19.627-5.558c-.72-3.433-1.441-8.173-2.161-11.606-.36-2.125-.9-4.414-1.26-6.539-.54-2.616-1.621-4.577,1.8-6.7C112.026,62.771,115.448,61.3,118.509,63.588Z" transform="translate(-93.3 -62.331)" fill="#45d3ff"/><g transform="translate(15.845 5.507)"><path d="M106.241,85.807s-.18,0-.18-.163L102.1,65.863c0-.163,0-.163.18-.163s.18,0,.18.163l3.961,19.78-.18.163Z" transform="translate(-102.1 -65.7)" fill="#404363"/></g><g transform="translate(20.167 25.124)"><path d="M108.461,78.681h0a5.162,5.162,0,0,0-3.781-.49c-.18,0-.18,0-.18-.163s0-.163.18-.163a5.521,5.521,0,0,1,3.961.49c0,.163,0,.163-.18.327Z" transform="translate(-104.5 -77.7)" fill="#404363"/></g><g transform="translate(14.585 8.123)"><path d="M103.741,70.242h0L101.4,67.463V67.3h.18l2.161,2.779c.36,0,.36.163,0,.163Z" transform="translate(-101.4 -67.3)" fill="#404363"/></g></g></g></g><g transform="translate(0 49.866)"><g transform="translate(11.884 48.877)"><path d="M95.537,153.05a.75.75,0,0,1-.72-.49L73.569,105.971H42.959L23.692,151.089a.683.683,0,0,1-.9.327.579.579,0,0,1-.36-.817L41.878,104.99a.75.75,0,0,1,.72-.49H74.289a.75.75,0,0,1,.72.49L96.437,152.07c.18.327,0,.817-.36.817A1.5,1.5,0,0,1,95.537,153.05Z" transform="translate(-22.361 -104.5)" fill="#404363"/></g><g transform="translate(0 48.877)"><path d="M88.757,153.05a.75.75,0,0,1-.72-.49L66.789,105.971H36.178L17.092,151.089a.683.683,0,0,1-.9.327.579.579,0,0,1-.36-.817L35.278,104.99a.75.75,0,0,1,.72-.49H67.689a.75.75,0,0,1,.72.49L89.837,152.07c.18.327,0,.817-.36.817A1.948,1.948,0,0,1,88.757,153.05Z" transform="translate(-15.761 -104.5)" fill="#404363"/></g><g transform="translate(6.954)"><path d="M30.386,118.573H55.054L43.89,77.706a4.6,4.6,0,0,0-4.5-3.106H24.263c-3.061,0-5.222,2.616-4.5,5.231Z" transform="translate(-19.623 -74.6)" fill="#efefef"/><g transform="translate(4.682)"><path d="M32.986,118.573H57.654L46.49,77.706a4.6,4.6,0,0,0-4.5-3.106H26.863c-3.061,0-5.222,2.616-4.5,5.231Z" transform="translate(-22.223 -74.6)" fill="#136afb"/></g><g transform="translate(9.863 9.481)"><path d="M41.846,81.381H25.64q-.54,0-.54-.49t.54-.49H41.846q.54,0,.54.49C42.386,81.217,42.026,81.381,41.846,81.381Z" transform="translate(-25.1 -80.4)" fill="#e3e6ff"/><g transform="translate(2.881 8.991)"><path d="M43.446,86.881H27.24q-.54,0-.54-.49t.54-.49H43.446q.54,0,.54.49A.547.547,0,0,1,43.446,86.881Z" transform="translate(-26.7 -85.9)" fill="#e3e6ff"/></g><g transform="translate(5.762 17.818)"><path d="M45.046,92.281H28.84q-.54,0-.54-.49t.54-.49H45.046q.54,0,.54.49T45.046,92.281Z" transform="translate(-28.3 -91.3)" fill="#e3e6ff"/></g></g></g><g transform="translate(17.537 41.194)"><path d="M29.641,107.32H71.416a3.9,3.9,0,0,0,4.141-3.76h0a3.9,3.9,0,0,0-4.141-3.76H29.641a3.9,3.9,0,0,0-4.141,3.76h0A4.135,4.135,0,0,0,29.641,107.32Z" transform="translate(-25.5 -99.8)" fill="#efefef"/></g></g><g transform="translate(30.681 2.133)"><g transform="translate(35.54 29.39)"><g transform="translate(14.354 9.739)"><g transform="translate(38.156 7.042)"><g transform="translate(10.984 2.216)"><path d="M87.8,75a14.2,14.2,0,0,0,2.881,2.125,1.836,1.836,0,0,0,1.08,0l-1.621-1.962Z" transform="translate(-87.8 -75)" fill="#ffb49b"/></g><g transform="translate(10.264 0.09)"><path d="M87.4,73.7l5.942,1.635s-.18.327-.9.49a22.238,22.238,0,0,1-2.521-.327Z" transform="translate(-87.4 -73.7)" fill="#ffb49b"/></g><path d="M81.7,76.187s8.643-3.106,10.264-2.452c1.621.49,5.582,2.616,6.122,3.6.54.817-3.421-.327-4.5-.327a12.27,12.27,0,0,0-3.6,1.308c-1.08.49-2.161.817-3.061,1.144a4.179,4.179,0,0,1-4.862-2.289Z" transform="translate(-81.7 -73.645)" fill="#ffb49b"/></g><path d="M101.727,77.941,80.119,76.306,67.335,69.931a5.056,5.056,0,0,0-5.042.163h0a3.854,3.854,0,0,0,.36,6.7l11.7,5.885,2.7,1.144,25.569-1.635Z" transform="translate(-60.51 -69.337)" fill="#ffb49b"/></g><path d="M53.19,66.029c-1.08,1.144-.72,4.087.36,5.231a40.081,40.081,0,0,0,11.884,8.664l17.106,8.5,20.527-1.308,2.161-5.885L86.141,79.6,61.833,64.721C62.013,64.721,57.512,60.961,53.19,66.029Z" transform="translate(-52.538 -63.379)" fill="#e6e6e6"/></g><g transform="translate(24.489 29.751)"><path d="M64.946,64.744l-1.44,10.789L57.2,95.967l2.7,20.761H46.4L53.783,63.6Z" transform="translate(-46.4 -63.6)" fill="#b2b2b2"/></g><g transform="translate(5.395 60.484)"><g transform="translate(48.444 70.455)"><path d="M78.365,135.145c-.36-.163-.54-.163-.9-.327-2.7-.817-4.141-2.942-6.3-4.741-.9-.817-.9-1.471-.9-3.106l.18-.817-5.762-.654a12.817,12.817,0,0,1-.18,2.779,22.013,22.013,0,0,1-1.26,4.9l-.54,1.962c0,1.962,2.881,2.125,6.122,2.125,3.421,0,2.341.654,7.022,1.144s6.482-.654,6.662-1.308C82.867,136.616,80.706,135.962,78.365,135.145Z" transform="translate(-62.7 -125.5)" fill="#f5876e"/></g><g transform="translate(46.823 75.033)"><path d="M66.482,132.06c-1.44,0-2.341-.654-2.161-1.962l.18-1.144h-.9l-1.8,6.866a.814.814,0,0,0,.9.817l21.788.654a.814.814,0,0,0,.9-.817v-1.308a2,2,0,0,0-1.621-1.962L77.826,131.9l-4.141-2.779-1.26-.817-1.8.981L69,131.242a6.453,6.453,0,0,1-2.521.817Z" transform="translate(-61.8 -128.3)" fill="#e6e6e6"/></g><path d="M57.411,82.4l2.521,13.078,23.588,7.356,5.042,1.471a1.422,1.422,0,0,1,.9.817l1.26,1.962s3.061,49.2,3.241,49.368a9.426,9.426,0,0,1-4.862.981c-3.781-.327-4.141-2.616-4.141-2.616,0-.49-5.4-23.7-5.4-23.7l-.18-12.424v-2.125H79.2l-36.013-5.721c-4.322-.817-7.563-4.25-7.383-8.337l.54-15.857Z" transform="translate(-35.796 -82.4)" fill="#5a66a2"/></g><g transform="translate(1.188 61.465)"><g transform="translate(45.238 74.379)"><path d="M59.334,133.731a7.208,7.208,0,0,0,1.08-3.923.913.913,0,0,0-.18-.654l5.942-.654a15.117,15.117,0,0,0,1.621,3.269c1.8,2.125,3.061,4.25,5.4,5.558a2.015,2.015,0,0,0,.9.327c2.161,1.144,4.141,1.962,3.961,2.452-.36.49-2.341,1.471-6.842.327s-3.421-1.635-6.842-2.125c-3.241-.49-6.122-1.144-5.762-2.942A4.024,4.024,0,0,1,59.334,133.731Z" transform="translate(-58.583 -128.5)" fill="#f5876e"/></g><g transform="translate(44.548 78.138)"><path d="M62.882,134.56a3.191,3.191,0,0,1-3.061-2.289l.18-1.144-1.26.981-.54,5.721a.773.773,0,0,0,.72.817l21.607,1.8c.54,0,.9-.327.9-.654v-1.308a1.848,1.848,0,0,0-1.621-1.962l-5.762-1.635-3.961-3.106L69,130.8l-1.8.981-1.8,1.8a3.741,3.741,0,0,1-2.521.981Z" transform="translate(-58.2 -130.8)" fill="#efefef"/></g><path d="M57.661,83l.9,13.241,22.688,9.645,4.862,1.962a2.081,2.081,0,0,1,.9.817l.9,2.125s.18,49.2.18,49.368a10.446,10.446,0,0,1-5.042.654c-3.781-.49-3.961-2.779-3.961-2.779,0-.49-4.141-23.867-4.141-23.867l.36-12.424v-2.616h-.18l-35.292-9.154a8.245,8.245,0,0,1-6.3-8.991l4.682-15.693Z" transform="translate(-33.46 -83)" fill="#6c78bb"/></g><g transform="translate(0 15.693)"><g transform="translate(29.051 9.912)"><path d="M63.1,66.681a22.413,22.413,0,0,0-2.341-1.8c-2.7-1.635-7.2-5.885-9.9-2.616-2.521,3.106-2.341,8.827-.72,12.26.72,1.471,1.621,3.106,3.241,3.76a6.691,6.691,0,0,0,5.582-.327C60.217,74.2,61.657,70.441,63.1,66.681Z" transform="translate(-48.934 -61.064)" fill="#ffb49b"/></g><g transform="translate(33.348)"><path d="M53.265,74.78h0c-2.161-.981-2.521-3.76-1.08-6.048L60.827,55l7.563,3.76L59.747,72.491C58.126,74.78,55.245,75.761,53.265,74.78Z" transform="translate(-51.32 -55)" fill="#ffb49b"/><g transform="translate(6.68 1.962)"><path d="M58.037,69.6c-3.421-1.8-3.781-7.683-1.8-11.77l.72-1.635L64.7,58.816Z" transform="translate(-55.03 -56.2)" fill="#f5876e"/></g></g><g transform="translate(1.62 9.154)"><path d="M74.214,69.754a27.1,27.1,0,0,1-6.662,4.9,31.075,31.075,0,0,0-.18-8.173,20.988,20.988,0,0,0-1.26-5.394,16.428,16.428,0,0,0-3.961-.49c-4.862,0-8.643,2.616-11.524,5.885a51.131,51.131,0,0,0-5.582,8.664c-1.441,2.779-2.7,5.721-3.961,8.664-2.341,6.212-4.141,12.587-5.942,18.962-.54,1.8-1.08,3.76-1.441,5.558,9.363,4.087,18.366,4.9,28.63,3.923.72-4.577,1.621-13.078,1.981-17.655a19.394,19.394,0,0,1,1.8-7.847,17.918,17.918,0,0,1,3.6-5.068C71.153,77.764,72.774,73.678,74.214,69.754Z" transform="translate(-33.7 -60.6)" fill="#418bf7"/></g><g transform="translate(0 9.154)"><path d="M52.607,96.236,68.452,74.822s-.36-11.606.9-13.568a41.21,41.21,0,0,0-6.3-.654c-4.862,0-8.643,2.616-11.524,5.885a51.13,51.13,0,0,0-5.582,8.664c-1.441,2.779-2.7,5.721-3.961,8.664-2.341,6.212-4.862,12.26-6.482,18.636-.54,1.8-2.7,11.443-2.7,15.2a60.054,60.054,0,0,0,17.106,4.414C50.266,116.507,52.607,96.236,52.607,96.236Z" transform="translate(-32.8 -60.6)" fill="#fff"/></g><g transform="translate(5.762 54.762)"><path d="M42.3,90.462h0L36.18,88.827a.166.166,0,0,1-.18-.163c0-.163.18-.163.18-.163L42.3,90.135a.166.166,0,0,1,.18.163C42.482,90.462,42.482,90.462,42.3,90.462Z" transform="translate(-36 -88.5)" fill="#404363"/></g><g transform="translate(20.167 17.001)"><path d="M47.961,65.4c-.54,2.125-.54,4.414-.9,6.375-.72,4.577-1.621,9.154-2.161,13.731-.36,2.452-.72,4.741-.9,7.193L54.444,78.641C52.283,74.227,50.482,69.65,47.961,65.4Z" transform="translate(-44 -65.4)" fill="#e6e6e6"/></g></g><g transform="translate(22.308 27.154)"><g transform="translate(1.82 6.193)"><g transform="translate(38.353 16.183)"><g transform="translate(10.624)"><path d="M89.426,89.1a3.842,3.842,0,0,1-1.44-.163,12.659,12.659,0,0,1-4.862-2.779,2.476,2.476,0,0,0-.72-.49,13.953,13.953,0,0,0-3.6-2.616,6.024,6.024,0,0,0-5.222-.49H73.4V82.4a6.826,6.826,0,0,1,5.582.49,13.954,13.954,0,0,1,3.6,2.616,2.476,2.476,0,0,0,.72.49,13.382,13.382,0,0,0,4.682,2.779,8.209,8.209,0,0,0,5.042-.654c5.762-2.125,10.264-6.7,11.7-12.26,0-.163.18-.163.18-.163a.166.166,0,0,1,.18.163A19.223,19.223,0,0,1,93.027,88.287,10.417,10.417,0,0,1,89.426,89.1Z" transform="translate(-73.4 -75.7)" fill="#404363"/></g><g transform="translate(7.923 5.068)"><path d="M71.9,81.906a15.317,15.317,0,0,1,1.981-2.779,1.94,1.94,0,0,1,.9-.327l-1.44,3.269Z" transform="translate(-71.9 -78.8)" fill="#ffa587"/></g><g transform="translate(9.543 3.98)"><path d="M73.7,83.309l2.881-5.068a1.229,1.229,0,0,0-1.26.163A37.575,37.575,0,0,0,72.8,82.492Z" transform="translate(-72.8 -78.135)" fill="#ffa587"/></g><g transform="translate(0 5.33)"><path d="M67.5,84.746s9.363.49,10.624-.49,4.321-4.087,4.682-5.068c.18-.981-3.241,1.471-4.682,2.289-.72.49-2.7-.49-3.781-.654A11.356,11.356,0,0,0,71.1,80.66a3.348,3.348,0,0,0-3.6,3.269Z" transform="translate(-67.5 -78.961)" fill="#ffb49b"/></g><g transform="translate(4.8 5.808)"><path d="M74.369,82.6c-1.981.654-3.781.49-4.141-.327s.9-1.962,2.881-2.616,3.781-.49,4.141.327C77.43,80.8,76.169,81.945,74.369,82.6Z" transform="translate(-70.166 -79.253)" fill="#404363"/></g><g transform="translate(2.662 6.108)"><path d="M73.159,80.848a7.4,7.4,0,0,1,1.26-1.308c.36-.327,1.44.163,1.08.817a7.356,7.356,0,0,1-1.08,1.471s-.9,2.452-2.7,2.779c-2.521.49-2.881-1.308-2.7-1.962a.371.371,0,0,1,.36-.327Z" transform="translate(-68.978 -79.436)" fill="#ffb49b"/></g></g><path d="M87.254,89.176,61.685,84.109,53.763,65.8,46.2,68.252l11.164,24.03,2.881.327,27.55.49Z" transform="translate(-46.2 -65.8)" fill="#ffb49b"/></g><path d="M47.73,62.32a3.351,3.351,0,0,0-2.521,3.433A42.75,42.75,0,0,0,49.89,79.811L55.832,94.85l26.649,2.942.9-7.356L64.115,86.513,55.652,66.08S54.572,60.685,47.73,62.32Z" transform="translate(-45.189 -62.011)" fill="#fff"/><g transform="translate(10.463 4.068)"><path d="M58.923,82.482h0L51,64.663c0-.163,0-.163.18-.163s.18,0,.18.163L59.1,82.318l-.18.163Z" transform="translate(-51 -64.5)" fill="#404363"/></g><g transform="translate(12.624 5.54)"><path d="M52.38,69.16h0A.166.166,0,0,1,52.2,69l.18-3.433c0-.163.18-.163.18-.163a.166.166,0,0,1,.18.163L52.56,69C52.56,69.16,52.56,69.16,52.38,69.16Z" transform="translate(-52.2 -65.4)" fill="#404363"/></g></g><g transform="translate(37.925)"><g transform="translate(1.678 4.414)"><path d="M62.727,48.1a7.76,7.76,0,0,0-4.141,4.25l-3.421,8.01c-1.621,4.087,2.341,11.116,6.662,12.587C63.808,73.6,69.57,70,71.37,65.918l3.241-8.173A7.356,7.356,0,0,0,72.991,49.9C69.75,49.408,66.149,48.754,62.727,48.1Z" transform="translate(-54.794 -48.1)" fill="#ffb49b"/><g transform="translate(5.412)"><path d="M70.765,49.9c-3.6-.654-7.022-1.144-10.624-1.8A10.919,10.919,0,0,0,57.8,49.571a9.156,9.156,0,0,0,1.26,1.471c.18,0,.18,0,.36.163l.36.327h0a.166.166,0,0,1,.18.163c3.6,3.6,6.842,7.356,10.264,11.116l1.981-4.9A7.244,7.244,0,0,0,70.765,49.9Z" transform="translate(-57.8 -48.1)" fill="#f5876e"/></g></g><g transform="translate(0 0.554)"><path d="M77.339,51.887a12.407,12.407,0,0,0-4.682-4.741,10.977,10.977,0,0,0-6.842-1.308,13.488,13.488,0,0,0-3.421.981,33.5,33.5,0,0,0-2.7,2.289c-.9.654-2.161.327-3.061,1.144a6.684,6.684,0,0,0-1.621,2.616,16.941,16.941,0,0,0,0,12.26,16.741,16.741,0,0,1,1.26-2.942c0-.163.54-1.308.36-1.308a1.776,1.776,0,0,1,.9.654c.72-.981,1.26-1.962,1.981-2.779a4.458,4.458,0,0,1,.9-.981,6.134,6.134,0,0,1,1.621-.49,5.706,5.706,0,0,0,2.521-1.962c4.682,2.452,9.183,5.068,13.865,7.52,0,0,.54-3.6.54-3.923A10.806,10.806,0,0,0,77.339,51.887Z" transform="translate(-53.862 -45.739)" fill="#404363"/></g><g transform="translate(5.831)"><path d="M57.28,49.814h0a.166.166,0,0,1-.18-.163,5.074,5.074,0,0,1,3.421-4.25c.18,0,.18,0,.18.163s0,.163-.18.163a4.949,4.949,0,0,0-3.241,4.087Z" transform="translate(-57.1 -45.4)" fill="#404363"/></g><g transform="translate(3.13 3.575)"><path d="M59.381,48.589h0a3.637,3.637,0,0,0-3.6-.49H55.6v-.163a3.5,3.5,0,0,1,3.781.49c.18,0,.18,0,0,.163Z" transform="translate(-55.6 -47.587)" fill="#404363"/></g><g transform="translate(10.152 13.198)"><g transform="translate(6.793 4.904)"><path d="M64.582,58.479c.18-.49.36-.817.54-1.308.18-.327-.18-.654-.54-.654a.53.53,0,0,0-.72.49c-.18.49-.36.817-.54,1.308-.18.327.18.654.54.654s.72-.163.72-.49Z" transform="translate(-63.273 -56.473)" fill="#404363"/></g><g transform="translate(2.441 6.95)"><path d="M62.736,60.79h0a3.264,3.264,0,0,1-1.8-.49s-.18-.163,0-.163c0,0,.18-.163.18,0a13.216,13.216,0,0,0,1.44.49h.18V60.3a2.918,2.918,0,0,1,0-2.452c0-.163.18-.163.18,0,.18,0,.18.163,0,.163a2.225,2.225,0,0,0,0,2.125.463.463,0,0,1,0,.654C62.916,60.627,62.736,60.79,62.736,60.79Z" transform="translate(-60.856 -57.725)" fill="#404363"/></g><g transform="translate(0.312 2.779)"><path d="M60.982,57.179c.18-.49.36-.817.54-1.308.18-.327-.18-.654-.54-.654a.53.53,0,0,0-.72.49c-.18.49-.36.817-.54,1.308-.18.327.18.654.54.654a.966.966,0,0,0,.72-.49Z" transform="translate(-59.673 -55.173)" fill="#404363"/></g><g transform="translate(8.102 2.659)"><path d="M65.8,56.244c-.18,0-.18-.163,0,0a2.57,2.57,0,0,0-1.621-.817c-.18,0-.18,0-.18-.163s0-.163.18-.163a2.3,2.3,0,0,1,1.8.817c0,.163,0,.163-.18.327Z" transform="translate(-64 -55.1)" fill="#404363"/></g><path d="M61.661,54.334h0a2.174,2.174,0,0,0-1.981-.49c-.18,0-.18,0-.18-.163s0-.163.18-.163a2.769,2.769,0,0,1,1.981.49c.18.163.36.327,0,.327Z" transform="translate(-59.5 -53.473)" fill="#404363"/></g><g transform="translate(0.427 12.569)"><path d="M54.281,54.905c-.54,1.144.18,2.452,1.44,3.269a.912.912,0,0,0,1.08-.327l1.441-3.6a.579.579,0,0,0-.36-.817C56.081,52.453,54.821,53.761,54.281,54.905Z" transform="translate(-54.099 -53.089)" fill="#ffb49b"/><g transform="translate(1.263 0.728)"><path d="M55.34,56.584h0c-.18,0-.36-.163-.54-.327v-.49c.18-.163.36-.327.54-.327h.36a1.2,1.2,0,0,0,.36-.654c0-.327,0-.654-.18-.817s-.54,0-.54,0h-.18v-.163a.91.91,0,0,1,1.08-.163.956.956,0,0,1,.36,1.144l-.54.981-.18.163-.18-.163h-.18c-.18,0-.18,0-.18.163v.163c0,.163.18.163.18.163a.486.486,0,0,1-.18.327Z" transform="translate(-54.8 -53.534)" fill="#404363"/></g></g><g transform="translate(1.509 11.869)"><g transform="translate(2.09 6.045)"><path d="M56.292,60.84a6.172,6.172,0,0,0-.36,3.106,3.615,3.615,0,0,0,1.441,2.289,7.637,7.637,0,0,0,10.084,0,12.191,12.191,0,0,0,3.6-5.394c.18-.49-4.322-1.635-4.682-1.635a29.83,29.83,0,0,1-6.3-2.616,1.291,1.291,0,0,0-1.08-.163c-.54.163-.72.654-.9.981A12.948,12.948,0,0,0,56.292,60.84Z" transform="translate(-55.861 -56.359)" fill="#fff"/></g><g transform="translate(2.09)"><path d="M59.353,60.571c-.18,0-.36-.163-.54-.327l-2.881-6.866c-.18-.327,0-.49.36-.654s.54,0,.72.327l2.881,6.866c.18.327,0,.49-.36.654Z" transform="translate(-55.861 -52.661)" fill="#fff"/></g><g transform="translate(0 5.132)"><path d="M57.4,63.973c-.18,0-.36-.163-.54-.327A22.511,22.511,0,0,1,54.7,56.29q0-.49.54-.49t.54.49a21.793,21.793,0,0,0,2.161,7.029c.18.327,0,.49-.36.654Z" transform="translate(-54.7 -55.8)" fill="#fff"/></g><g transform="translate(10.624 8.238)"><path d="M64.561,59.171h0a11.164,11.164,0,0,0-3.781-1.144.166.166,0,0,1-.18-.163c0-.163.18-.163.18-.163a15.631,15.631,0,0,1,3.961,1.144c0,.163,0,.163-.18.327Z" transform="translate(-60.6 -57.7)" fill="#404363"/></g></g><g transform="translate(3.31 12.424)"><g transform="translate(2.881 2.452)"><path d="M61.261,61.693a3.613,3.613,0,1,1,3.961-3.6A3.826,3.826,0,0,1,61.261,61.693Zm0-6.866a3.285,3.285,0,1,0,3.6,3.269A3.458,3.458,0,0,0,61.261,54.827Z" transform="translate(-57.3 -54.5)" fill="#404363"/></g><g transform="translate(11.614 4.734)"><path d="M65.3,62.932a1.764,1.764,0,0,1-.9-.163,3.177,3.177,0,0,1-1.981-1.635,3.3,3.3,0,0,1,0-2.616,3.683,3.683,0,0,1,1.8-2.125,3.191,3.191,0,0,1,2.7-.327A3.228,3.228,0,0,1,68.9,60.48h0A4.2,4.2,0,0,1,65.3,62.932Zm.72-6.7a3.107,3.107,0,0,0-1.621.49,4.533,4.533,0,0,0-1.621,1.962,2.918,2.918,0,0,0,0,2.452A2.751,2.751,0,0,0,64.4,62.6c1.621.49,3.241-.49,3.961-2.289a3,3,0,0,0-1.8-3.923A.706.706,0,0,0,66.021,56.23Zm2.521,4.087Z" transform="translate(-62.15 -55.896)" fill="#404363"/></g><g transform="translate(10.443 6.375)"><path d="M63.121,57.717h0a2.546,2.546,0,0,0-1.44-.49h0c-.18,0-.18,0-.18-.163s0-.163.18-.163a3.107,3.107,0,0,1,1.621.49c0,.163.18.163-.18.327Z" transform="translate(-61.5 -56.9)" fill="#404363"/></g><path d="M59.481,56.923h0c-.72-.654-1.26-1.308-1.981-1.962a15.394,15.394,0,0,1-1.8-1.8V53h.18a18.661,18.661,0,0,1,1.8,1.8,15.392,15.392,0,0,1,1.8,1.8c.36.163.36.163,0,.327Z" transform="translate(-55.7 -53)" fill="#404363"/></g></g><g transform="translate(38.547 15.366)"><path d="M61.036,75.07a8.358,8.358,0,0,1-1.981-.327c-1.8-.817-3.061-2.452-3.961-5.231a23.711,23.711,0,0,1,.54-14.549c0-.163.18-.163.18-.163a.166.166,0,0,1,.18.163,22.646,22.646,0,0,0-.36,14.222c.72,2.616,1.981,4.25,3.781,5.068,2.341.981,5.222-.163,6.842-1.962a8.855,8.855,0,0,0,1.8-4.9c0-.163.18-.163.18-.163a.166.166,0,0,1,.18.163,9.227,9.227,0,0,1-1.8,5.068A7.726,7.726,0,0,1,61.036,75.07Z" transform="translate(-54.208 -54.8)" fill="#404363"/><g transform="translate(57.966 32.172)"><path d="M91.442,75.493c0,.654-1.08.981-2.521.981s-2.521-.49-2.521-.981c0-.654,1.08-.981,2.521-.981C90.181,74.349,91.442,74.839,91.442,75.493Z" transform="translate(-86.4 -74.481)" fill="#4d4d4d"/></g><g transform="translate(52.633 32.694)"><path d="M88.771,74.8l2.521.327.72.981-.9.654-2.341.327S86.611,79.05,84.81,78.56c-2.521-.49-.9-2.289-.36-2.779a.586.586,0,0,1,.36-.163Z" transform="translate(-83.438 -74.8)" fill="#ffb49b"/></g><g transform="translate(4.815 19.78)"><path d="M70.239,84.064a11.893,11.893,0,0,1-4.322-.654,12.33,12.33,0,0,1-7.2-6.212c-1.441-2.779-1.981-7.356-1.8-10.135,0-.163.18-.163.18-.163a.166.166,0,0,1,.18.163,21.38,21.38,0,0,0,1.8,9.972A12.253,12.253,0,0,0,66.1,83.083a16.745,16.745,0,0,0,9,0,57.944,57.944,0,0,0,5.762-1.8c1.08-.327,1.981-.654,3.061-.981a62.836,62.836,0,0,1,27.189-1.635.166.166,0,0,1,.18.163c0,.163-.18.163-.18.163-9.183-1.471-19.087-.981-27.009,1.471-1.08.327-1.981.654-3.061.981a57.938,57.938,0,0,1-5.762,1.8A21.767,21.767,0,0,1,70.239,84.064Z" transform="translate(-56.881 -66.9)" fill="#404363"/><g transform="translate(53.152 11.116)"><path d="M91.082,74.681c0,.49-1.08.981-2.341.981s-2.341-.49-2.341-.981,1.08-.981,2.341-.981S91.082,74.19,91.082,74.681Z" transform="translate(-86.4 -73.7)" fill="#666"/></g><g transform="translate(54.052 11.443)"><path d="M90.141,74.554c0,.327-.72.654-1.621.654s-1.621-.327-1.621-.654.72-.654,1.621-.654C89.241,73.9,90.141,74.227,90.141,74.554Z" transform="translate(-86.9 -73.9)" fill="#b3b3b3"/></g></g></g></g><g transform="translate(70.835 67.194)"><g transform="translate(8.103 4.414)"><path d="M115.059,166.038a.742.742,0,0,1-.72-.654V89.208h-53.3v76.177a.724.724,0,0,1-1.441,0V88.554a.742.742,0,0,1,.72-.654h54.739a.742.742,0,0,1,.72.654v76.994C115.96,165.875,115.6,166.038,115.059,166.038Z" transform="translate(-59.6 -87.9)" fill="#404363"/></g><rect width="72.565" height="4.087" fill="#136afb"/></g></g></svg>