<svg width="24" height="24" viewBox="0 0 24 24" fill="none" xmlns="http://www.w3.org/2000/svg">
<path d="M17.914 13.4129C17.8145 13.4129 17.7192 13.4524 17.6488 13.5228C17.5785 13.5931 17.539 13.6885 17.539 13.7879V17.1219C17.5385 17.4204 17.4197 17.7065 17.2086 17.9176C16.9976 18.1286 16.7115 18.2474 16.413 18.2479H5.877C5.57871 18.2474 5.29276 18.1287 5.08174 17.9179C4.87072 17.7071 4.7518 17.4212 4.751 17.1229V7.33794C4.75153 7.03947 4.87033 6.75337 5.08139 6.54232C5.29244 6.33127 5.57853 6.21247 5.877 6.21194H9.211C9.31059 6.21194 9.4061 6.17238 9.47652 6.10196C9.54694 6.03154 9.5865 5.93603 9.5865 5.83644C9.5865 5.73685 9.54694 5.64134 9.47652 5.57092C9.4061 5.5005 9.31059 5.46094 9.211 5.46094H5.877C5.37936 5.46147 4.90224 5.65939 4.55035 6.01128C4.19846 6.36317 4.00053 6.84029 4 7.33794V17.1219C3.99948 17.3689 4.04763 17.6135 4.14169 17.8418C4.23576 18.0701 4.37391 18.2776 4.54823 18.4525C4.72255 18.6273 4.92963 18.7662 5.15763 18.861C5.38563 18.9557 5.63008 19.0047 5.877 19.0049H16.412C16.9097 19.0044 17.3868 18.8065 17.7387 18.4546C18.0906 18.1027 18.2885 17.6256 18.289 17.1279V13.7889C18.2891 13.7396 18.2795 13.6907 18.2607 13.6451C18.242 13.5995 18.2144 13.5581 18.1795 13.5231C18.1447 13.4882 18.1033 13.4605 18.0577 13.4416C18.0122 13.4227 17.9633 13.4129 17.914 13.4129Z" fill="#136AFB"/>
<path d="M18.1424 4.49448C17.8255 4.17786 17.3959 4 16.9479 4C16.4999 4 16.0703 4.17786 15.7534 4.49448L9.0534 11.1945C9.00624 11.2398 8.97177 11.2967 8.9534 11.3595L8.0724 14.5395C8.05452 14.6035 8.054 14.6712 8.07087 14.7355C8.08775 14.7998 8.12142 14.8584 8.16843 14.9054C8.21544 14.9525 8.27411 14.9861 8.33841 15.003C8.40272 15.0199 8.47036 15.0194 8.5344 15.0015L11.7144 14.1205C11.7772 14.1021 11.8341 14.0676 11.8794 14.0205L18.5794 7.32048C18.8958 7.00345 19.0735 6.57386 19.0735 6.12598C19.0735 5.67809 18.8958 5.2485 18.5794 4.93148L18.1424 4.49448ZM9.8724 11.4365L15.3544 5.95448L17.1224 7.72248L11.6404 13.2045L9.8724 11.4365ZM9.5194 12.1455L10.9314 13.5585L8.9774 14.0995L9.5194 12.1455ZM18.0524 6.79348L17.6524 7.19348L15.8854 5.42348L16.2854 5.02348C16.4615 4.84767 16.7001 4.74893 16.9489 4.74893C17.1977 4.74893 17.4363 4.84767 17.6124 5.02348L18.0534 5.46448C18.2294 5.64088 18.3282 5.87997 18.328 6.12919C18.3278 6.3784 18.2287 6.61734 18.0524 6.79348Z" fill="#136AFB"/>
</svg>
