<svg width="24" height="24" viewBox="0 0 24 24" fill="none" xmlns="http://www.w3.org/2000/svg">
<path d="M5.79883 5.43945V8.33907H8.69845" stroke="#EF4444" stroke-linecap="square"/>
<path d="M5 12.0004C5.00772 13.1252 5.27841 14.2325 5.79044 15.234C6.37418 16.376 7.2642 17.3332 8.36092 17.9982C9.45763 18.6633 10.7178 19.0101 12.0003 18.9998C13.8567 18.9996 15.637 18.2621 16.9495 16.9494C18.262 15.6366 18.9993 13.8563 18.9992 11.9999C18.9991 10.1436 18.2615 8.36332 16.9488 7.05078C15.6361 5.73825 13.8557 5.00094 11.9994 5.00107C10.8899 4.9813 9.79264 5.2346 8.80413 5.73868C7.81562 6.24275 6.96621 6.98213 6.33069 7.89172" stroke="#EF4444" stroke-linecap="square"/>
</svg>

