<svg xmlns="http://www.w3.org/2000/svg" viewBox="0 0 30 30.001"><g data-name="Group 26956"><g data-name="Group 26939"><path fill="#64748b" d="M24.41 2.199h-1.759v-2.2h-1.32v2.2h-15.4v-2.2h-1.32v2.2H2.852a2.869 2.869 0 0 0-2.859 2.86V24.41a2.868 2.868 0 0 0 2.859 2.86H24.41a2.868 2.868 0 0 0 2.86-2.86V5.059a2.869 2.869 0 0 0-2.86-2.86Zm1.54 22.216a1.542 1.542 0 0 1-1.54 1.538H2.854a1.542 1.542 0 0 1-1.539-1.539V9.458H25.95Zm0-16.277H1.315v-3.08a1.542 1.542 0 0 1 1.539-1.539h1.76v2.2h1.32v-2.2h15.4v2.2h1.32v-2.2h1.76a1.542 1.542 0 0 1 1.539 1.539Z" data-name="Path 21895"/><path fill="#136afb" d="M3.739 12.207h2.2v2.2h-2.2z" data-name="Rectangle 24965"/><path fill="#136afb" d="M8.138 12.207h2.2v2.2h-2.2z" data-name="Rectangle 24966"/><path fill="#136afb" d="M12.537 12.207h2.2v2.2h-2.2z" data-name="Rectangle 24967"/><path fill="#136afb" d="M16.936 12.207h2.2v2.2h-2.2z" data-name="Rectangle 24968"/><path fill="#136afb" d="M21.335 12.207h2.2v2.2h-2.2z" data-name="Rectangle 24969"/><path fill="#136afb" d="M3.739 16.606h2.2v2.2h-2.2z" data-name="Rectangle 24970"/><path fill="#136afb" d="M8.138 16.606h2.2v2.2h-2.2z" data-name="Rectangle 24971"/><path fill="#136afb" d="M12.537 16.606h2.2v2.2h-2.2z" data-name="Rectangle 24972"/><path fill="#136afb" d="M16.936 16.606h2.2v2.2h-2.2z" data-name="Rectangle 24973"/><path fill="#136afb" d="M3.739 21.005h2.2v2.2h-2.2z" data-name="Rectangle 24974"/><path fill="#136afb" d="M8.138 21.005h2.2v2.2h-2.2z" data-name="Rectangle 24975"/><path fill="#136afb" d="M12.537 21.005h2.2v2.2h-2.2z" data-name="Rectangle 24976"/><path fill="#136afb" d="M16.936 21.005h2.2v2.2h-2.2z" data-name="Rectangle 24977"/><path fill="#136afb" d="M21.335 16.606h2.2v2.2h-2.2z" data-name="Rectangle 24978"/></g><g data-name="Group 26941"><g fill="#f1f5f9" stroke="#64748b" stroke-width="1.5" data-name="Ellipse 1467" transform="translate(16.363 16.364)"><circle cx="6.818" cy="6.818" r="6.818" stroke="none"/><circle cx="6.818" cy="6.818" r="6.068" fill="none"/></g><path fill="#136afb" stroke="#136afb" stroke-width=".5" d="M24.586 21.989h-2.382l.242-.356a.316.316 0 0 0-.261-.5.344.344 0 0 0-.269.129l-.744.934a.165.165 0 0 0 0 .206l.743.929a.344.344 0 0 0 .269.129.316.316 0 0 0 .261-.493l-.242-.359h2.383a1.387 1.387 0 1 1 0 2.773h-.674a.309.309 0 0 0 0 .618h.674a2.005 2.005 0 1 0 0-4.009Z" data-name="Path 21765"/></g></g></svg>