<svg xmlns="http://www.w3.org/2000/svg" width="44" height="44" viewBox="0 0 44 44"><g transform="translate(0 -24)"><path d="M953.639,408.769l4.575-6.875h-4.526l-2.2,3.768-2.618-3.768h-.022a5.187,5.187,0,0,0,2.8-1.884,5.112,5.112,0,0,0,.966-3.058,5.427,5.427,0,0,0-.709-2.752,4.889,4.889,0,0,0-2.141-1.945,7.73,7.73,0,0,0-3.462-.709h-7.021V408.72h4.183v-6.483h.95l4.387,6.336-4.5,6.973h4.524l2.2-3.792,2.62,3.792h4.7ZM943.457,395.02h2.593a2.374,2.374,0,0,1,1.725.563,2.057,2.057,0,0,1,.575,1.541,2.123,2.123,0,0,1-.575,1.59,2.365,2.365,0,0,1-1.725.563h-2.593Z" transform="translate(-927.273 -357.547)" fill="#136afb"/><g transform="translate(0 24)" fill="none" stroke="#136afb" stroke-width="2"><circle cx="22" cy="22" r="22" stroke="none"/><circle cx="22" cy="22" r="21" fill="none"/></g></g></svg>