<svg xmlns="http://www.w3.org/2000/svg" width="50" height="50" viewBox="0 0 50 50">
  <path id="Path_26348" data-name="Path 26348" d="M25,0A25,25,0,1,0,50,25,25.073,25.073,0,0,0,25,0ZM41.875,38.75c-.937-.313-1.562-.938-2.5-.938L32.5,36.563c-.625,0-1.25-.937-1.25-1.562V33.438c.313-.625.938-1.562,1.25-2.187a9.725,9.725,0,0,1,1.25-1.875c1.25-1.25,2.813-2.812,3.125-5a6.667,6.667,0,0,0-.312-3.75,21.262,21.262,0,0,0-.625-6.25,7.338,7.338,0,0,0-1.562-5,5.615,5.615,0,0,0-2.812-1.25c-.312,0-.937,0-.937-.312A13.946,13.946,0,0,0,25,6.25c-4.063.312-9.375,2.813-10.937,7.5-.625,1.25-.625,3.75-.312,5.625v1.25c-.625.625-.938,1.563-.625,3.438s1.875,3.438,3.125,5a19.141,19.141,0,0,0,1.25,1.875,13.587,13.587,0,0,0,1.25,2.187v1.563A2.076,2.076,0,0,1,17.5,36.25L10.625,37.5a21.531,21.531,0,0,0-2.5.938A19.776,19.776,0,0,1,3.125,25,21.74,21.74,0,0,1,25,3.125,21.74,21.74,0,0,1,46.875,25,21.2,21.2,0,0,1,41.875,38.75Z" fill="#cbd5e1"/>
</svg>
