<svg
                    xmlns="http://www.w3.org/2000/svg"
                    width="35"
                    height="44"
                    fill="none"
                >
                    <path
                        fill="#000"
                        d="M20.862 32.665c-2.915-3.2-5.79-6.354-8.656-9.514-.73-.806-1.4-1.661-2.15-2.45-1.73-.032-3.453-.02-5.3-.02v9.357a2.435 2.435 0 0 1-1.36 2.437 2.36 2.36 0 0 1-3.388-2.07c-.013-.173-.006-.35-.006-.522V2.723A2.727 2.727 0 0 1 2.739.008c2.527 0 5.05-.021 7.576.006A10.06 10.06 0 0 1 17.962 3.5a10.26 10.26 0 0 1 2.263 9.352 10.7 10.7 0 0 1-4.616 6.32c-.1.064-.2.133-.326.222l8.718 9.7c.489-.53.936-1.013 1.378-1.5 1.61-1.764 3.242-3.511 4.817-5.3a2.43 2.43 0 0 1 1.623-.99 2.26 2.26 0 0 1 2.385 1.39 2.315 2.315 0 0 1-.363 2.653c-1.5 1.674-3.04 3.325-4.545 5-.683.76-1.327 1.559-2.027 2.386v.028c2.065 2.268 4.143 4.524 6.193 6.805a2.9 2.9 0 0 1 .938 2.176 2.262 2.262 0 0 1-1.524 2.082 2.243 2.243 0 0 1-2.606-.631c-1.27-1.388-2.495-2.812-3.748-4.21-.814-.91-1.644-1.8-2.525-2.767-1.133 1.294-2.215 2.555-3.323 3.793-1.037 1.157-2.057 2.333-3.166 3.417a2.283 2.283 0 0 1-3.09-.051 2.343 2.343 0 0 1-.405-3.017 9.51 9.51 0 0 1 .884-1.144c1.959-2.163 3.923-4.31 5.965-6.55ZM4.795 15.923c.2.01.37.024.543.024 1.614 0 3.229.032 4.843 0a5.28 5.28 0 0 0 5.073-3.25 5.478 5.478 0 0 0-4.97-7.825c-1.672-.02-3.345 0-5.02 0-.147 0-.3.024-.47.038v11.013Z"
                    />
                </svg>