<svg xmlns="http://www.w3.org/2000/svg" viewBox="0 0 26.667 26.667"><g data-name="Group 26940"><path fill="#64748b" d="M23.871 2.15h-1.72V0H20.86v2.15H5.81V0H4.519v2.15h-1.72a2.8 2.8 0 0 0-2.8 2.8v18.921a2.8 2.8 0 0 0 2.8 2.8h21.075a2.8 2.8 0 0 0 2.8-2.8V4.947a2.805 2.805 0 0 0-2.803-2.797Zm1.506 21.722a1.508 1.508 0 0 1-1.506 1.5H2.795a1.508 1.508 0 0 1-1.505-1.5V9.248h24.087Zm0-15.915H1.29V4.946a1.508 1.508 0 0 1 1.505-1.505h1.721v2.151h1.291V3.441H20.86v2.151h1.291V3.441h1.721a1.508 1.508 0 0 1 1.505 1.505Z" data-name="Path 21895"/><path fill="#136afb" d="M3.656 11.935h2.151v2.151H3.656z" data-name="Rectangle 24965"/><path fill="#136afb" d="M7.957 11.935h2.151v2.151H7.957z" data-name="Rectangle 24966"/><path fill="#136afb" d="M12.258 11.935h2.151v2.151h-2.151z" data-name="Rectangle 24967"/><path fill="#136afb" d="M16.559 11.935h2.151v2.151h-2.151z" data-name="Rectangle 24968"/><path fill="#136afb" d="M20.86 11.935h2.151v2.151H20.86z" data-name="Rectangle 24969"/><path fill="#136afb" d="M3.656 16.237h2.151v2.151H3.656z" data-name="Rectangle 24970"/><path fill="#136afb" d="M7.957 16.237h2.151v2.151H7.957z" data-name="Rectangle 24971"/><path fill="#136afb" d="M12.258 16.237h2.151v2.151h-2.151z" data-name="Rectangle 24972"/><path fill="#136afb" d="M16.559 16.237h2.151v2.151h-2.151z" data-name="Rectangle 24973"/><path fill="#136afb" d="M3.656 20.538h2.151v2.151H3.656z" data-name="Rectangle 24974"/><path fill="#136afb" d="M7.957 20.538h2.151v2.151H7.957z" data-name="Rectangle 24975"/><path fill="#136afb" d="M12.258 20.538h2.151v2.151h-2.151z" data-name="Rectangle 24976"/><path fill="#136afb" d="M16.559 20.538h2.151v2.151h-2.151z" data-name="Rectangle 24977"/><path fill="#136afb" d="M20.86 16.237h2.151v2.151H20.86z" data-name="Rectangle 24978"/></g></svg>