<svg xmlns="http://www.w3.org/2000/svg" viewBox="0 0 30.5 26.456"><g stroke="#f1f5f9" stroke-width=".5"><path fill="#136afb" d="M19.176 12.556V3.765h1.756v7.032h2.638v1.759Zm-5.272 0V3.765h1.755v7.032h2.638v1.759Zm-2.64 0V9.038H9.509v3.518H7.75V6.403a2.637 2.637 0 1 1 5.273 0v6.153ZM9.509 6.403v.879h1.755v-.879a.877.877 0 1 0-1.755 0Z" data-name="Union 2"/><path fill="#64748b" d="M27.613 5.523h-.937V2.887A2.64 2.64 0 0 0 24.039.25H6.461a2.64 2.64 0 0 0-2.637 2.637v2.637h-.937A2.64 2.64 0 0 0 .25 8.156v12.3a2.64 2.64 0 0 0 2.637 2.637h7.969v-1.749H2.887a.88.88 0 0 1-.879-.879V8.156a.88.88 0 0 1 .879-.879h.938v6.152a2.64 2.64 0 0 0 2.637 2.637h17.577a2.64 2.64 0 0 0 2.637-2.637V7.281h.938a.88.88 0 0 1 .879.879v12.3a.88.88 0 0 1-.879.879h-6.727l1.763-1.753-1.243-1.243-3.88 3.88 3.88 3.88 1.243-1.247-1.758-1.758h6.726a2.64 2.64 0 0 0 2.632-2.633V8.156a2.64 2.64 0 0 0-2.637-2.633Zm-2.7 7.91a.88.88 0 0 1-.879.879H6.461a.88.88 0 0 1-.879-.879V2.887a.88.88 0 0 1 .879-.879h17.578a.88.88 0 0 1 .879.879Z" data-name="Path 21763"/></g></svg>